<svg xmlns="http://www.w3.org/2000/svg" viewBox="0 0 171.07 170.47"><defs><style>.cls-1{fill:#fff;}</style></defs><g id="Camada_2" data-name="Camada 2"><g id="Camada_1-2" data-name="Camada 1"><path class="cls-1" d="M171,126q0-56.86,0-113.75a11.91,11.91,0,0,0-4.15-9A13,13,0,0,0,157.6.06h-72v0Q58.33.05,31,.07c-6.51,0-13-.24-19.55.15A12.28,12.28,0,0,0,0,12.45q0,58.9,0,117.83a10.19,10.19,0,0,0,.16,2.14A12.57,12.57,0,0,0,13,142.68H41.06a4.56,4.56,0,0,1,2,.32,94.92,94.92,0,0,0,21.08,7.08,1,1,0,0,1,.93,1.12c0,1.32,0,2.64,0,4,0,1.9,0,1.87-1.81,2.28A101.18,101.18,0,0,0,43.75,164c-1.32.59-2,1.28-2,2.42a20.44,20.44,0,0,1,1.4,4.05h85a16,16,0,0,1,1.2-3.25,8.42,8.42,0,0,1,0-.87,1.79,1.79,0,0,0-1.27-2c-2.21-.91-4.4-1.91-6.63-2.77a86.11,86.11,0,0,0-13.88-4.13c-1.12-.22-1.66-.68-1.55-1.92a32.7,32.7,0,0,0,0-4c0-.91.25-1.3,1.22-1.5A86.32,86.32,0,0,0,125.7,144a13.93,13.93,0,0,1,6.11-1.33c8.92.09,17.84.06,26.76,0a12.55,12.55,0,0,0,12-9.12C171.3,131.06,171,128.54,171,126ZM44.1,168.37c-.19,0-.33,0-.43-.12a1.15,1.15,0,0,1,1-1.8H85.61q20.15,0,40.31,0c.53,0,1.26-.32,1.51.54s-.09,1.52-1.16,1.52c-3.76,0-7.52,0-11.28,0H46.72m65-8.26A95.51,95.51,0,0,1,122.56,164c.31.14.68.17.93.57H47.29a58,58,0,0,1,6.86-2.69,82.41,82.41,0,0,1,10.85-3,12.37,12.37,0,0,1,2.5-.22c10.91,0,21.83.08,32.74,0A39,39,0,0,1,111.69,160.27Zm-7.54-4.68c0,1-.31,1.38-1.31,1.33-5.84-.29-11.67,0-17.51-.07s-11.75,0-17.62,0c-.58,0-.81-.17-.81-.74,0-1.6,0-3.2,0-4.79,0-.58.31-.78.83-.77h34.66c1.75,0,1.75,0,1.75,1.8C104.14,153.43,104.09,154.51,104.15,155.59Zm14.76-10.85a101.52,101.52,0,0,1-12.65,3.66,11.74,11.74,0,0,1-2.51.18c-10.87,0-21.75,0-32.63,0a36.18,36.18,0,0,1-10.65-1.22,100.16,100.16,0,0,1-13.1-4.67h76.27l.07.19C122.11,143.52,120.52,144.16,118.91,144.74Zm44.36-5a11.09,11.09,0,0,1-5.58,1.1q-28.2,0-56.4,0H13.34a11.14,11.14,0,0,1-7.95-2.76,10.81,10.81,0,0,1-3.56-7.74c-.05-1.12,0-2.24,0-3.36V13.37c0-4.9,2.05-8.53,6.59-10.6A10.22,10.22,0,0,1,12.73,2C19.57,2,26.41,2,33.24,2,36.16,2,39.08,2,42,2h82.39q16.85,0,33.68,0c6.64,0,11.14,4.53,11.14,11.16q0,58.2,0,116.39A10.92,10.92,0,0,1,163.27,139.74Z"/><path class="cls-1" d="M122,9.4H152.7c4.74,0,7.73,3,7.73,7.72q0,50.34,0,100.67c0,4.82-3,7.82-7.77,7.82H18.39c-4.75,0-7.79-3-7.79-7.68q0-50.34,0-100.67a7.35,7.35,0,0,1,3.18-6.6,7.93,7.93,0,0,1,4.55-1.26h98.87l1.44,0m-3.55,2H18A5.27,5.27,0,0,0,12.39,17q0,50.51,0,101a6.06,6.06,0,0,0,.16,1.54c.76,2.76,2.63,4.09,5.72,4.09q33.65,0,67.31,0t67.3,0c3.61,0,5.77-2.17,5.77-5.75V17.1c0-3.52-2.16-5.73-5.63-5.74-10.24,0-20.48-.06-30.71,0"/><path class="cls-1" d="M23.36,138.14a4.77,4.77,0,0,1-4.88-4.93,4.93,4.93,0,0,1,5-5.05,5.12,5.12,0,0,1,5,5.07A4.92,4.92,0,0,1,23.36,138.14Zm.12-1.82A3.22,3.22,0,0,0,26.61,133a3.28,3.28,0,0,0-3.17-3,3.14,3.14,0,1,0,0,6.28Z"/><path class="cls-1" d="M85.51,136a2.82,2.82,0,0,1-2.9-2.84,2.91,2.91,0,0,1,5.82,0A2.83,2.83,0,0,1,85.51,136Z"/><path class="cls-1" d="M101.14,136a2.73,2.73,0,0,1-2.89-2.82,2.87,2.87,0,0,1,5.73-.05A2.78,2.78,0,0,1,101.14,136Z"/><path class="cls-1" d="M69.89,136a2.78,2.78,0,0,1-2.83-2.76,2.86,2.86,0,0,1,5.72-.05A2.73,2.73,0,0,1,69.89,136Z"/><path class="cls-1" d="M77.75,136a2.73,2.73,0,0,1-2.9-2.79,2.87,2.87,0,0,1,2.83-2.83,2.82,2.82,0,0,1,2.86,2.76A2.58,2.58,0,0,1,77.75,136Z"/><path class="cls-1" d="M93.28,136a2.61,2.61,0,0,1-2.8-2.86,2.84,2.84,0,1,1,5.68.17A2.73,2.73,0,0,1,93.28,136Z"/><path class="cls-1" d="M85.52,121.59H21.81a6.94,6.94,0,0,1-6.9-4.75,8.63,8.63,0,0,1-.45-3.07V21.26c0-3.71,1.56-6.17,4.71-7.49a9.32,9.32,0,0,1,3.66-.49c11.36,0,22.72.05,34.07.05q30.78,0,61.55-.07c9.32,0,18.64,0,28,0,1.75,0,3.55-.2,5.24.4,3.29,1.18,4.93,3.78,4.93,7.69V58.45q0,27.6,0,55.19c0,3.44-1.32,6-4.53,7.51a7.16,7.16,0,0,1-3.17.43H85.52Zm0-1.83H149a5.19,5.19,0,0,0,5.59-4.65,28.13,28.13,0,0,0,.15-5.27q0-26.52,0-53,0-17.86,0-35.75a5.65,5.65,0,0,0-3-5.27,7.27,7.27,0,0,0-3.74-.59q-62.76,0-125.52,0c-4.1,0-6.29,2.56-6.28,6.33q0,19.68,0,39.36,0,26.34,0,52.67c0,3.65,2.25,6.33,6.31,6.31C43.55,119.7,64.55,119.76,85.55,119.76Z"/><path class="cls-1" d="M85.42,119.36H22.67a6.78,6.78,0,0,1-2.48-.32,4.76,4.76,0,0,1-3.34-4.63c0-2.35,0-4.71,0-7.07q0-43,0-85.91c0-3.93,1.86-5.8,5.8-5.8H148.72c3.49,0,5.48,2,5.48,5.53V109.1c0,1.44-.09,2.88,0,4.31.3,4.27-2.73,6-5.92,6-10-.09-20,0-30,0Zm.22-101.77h-63a5.16,5.16,0,0,0-2.14.2c-1.45.61-1.73,1.79-1.73,3.22q0,20.64,0,41.27,0,22.74,0,45.48c0,2.32,0,4.64,0,7a2.63,2.63,0,0,0,2.56,2.65c.51,0,1,0,1.56,0H148.09c.48,0,1,0,1.44,0a2.77,2.77,0,0,0,1.65-.61c1.15-.78,1.06-2,1.06-3.13q0-46.18,0-92.38c0-.4,0-.8,0-1.2a2.59,2.59,0,0,0-2.38-2.44,15.46,15.46,0,0,0-1.67,0Z"/></g></g></svg>