<svg xmlns="http://www.w3.org/2000/svg" viewBox="0 0 395.06 455.04"><defs><style>.cls-1{fill:#fff;}</style></defs><g id="Camada_2" data-name="Camada 2"><g id="Camada_1-2" data-name="Camada 1"><path class="cls-1" d="M206,194.11c.57-1.15,1.14-2.31,1.72-3.46.94-1.88,1.88-3.76,2.84-5.63.34-.65.66-1.31,1-1.94l.06-.09a25.4,25.4,0,0,1,1.43-3.57c1-2.12,1.94-4.23,2.9-6.34a25.35,25.35,0,0,0-7-30.63c-4.63-3.87-11.29-3-14,2.36a198.44,198.44,0,0,0-10.3,22.63c-4.18,11.59,2.11,24.21,13.41,28.8a3.35,3.35,0,0,1,.94,0C201.67,196.79,204,195.6,206,194.11Zm.05-4.32c-2.71,5.46-9.08,6-12.83,1.39-.94-1.16-1.74-2.42-3-4.24-4.3-5-6.54-11.39-3.88-18.34A242.32,242.32,0,0,1,196.64,146c2.24-4.45,7.31-5.45,10.89-2,6.83,6.55,11.78,15.59,7.82,25.45C212.58,176.38,209.39,183.13,206.08,189.79Z"/><path class="cls-1" d="M243.64,446.83c4.59,6.52,9.83,8.87,17.7,8.06,28.73-3,57.49-5.68,86.28-8,9-.71,14.53-4.37,18.2-12.69,8.82-20.06,18.17-39.88,27.53-59.68,2.71-5.74,2.17-10.41-1.4-15.77a48.7,48.7,0,0,0-19.81-17.6C352.35,331.66,337,317.4,324.6,299.1c-21.2-31.25-43.23-62-65.57-92.41-7.09-9.66-8.67-20.53-11.16-31.54v-1.53a17.07,17.07,0,0,1,.23-2.14,9.61,9.61,0,0,1,.65-3.72,13.94,13.94,0,0,1,.48-1.42Q227.28,134,204.58,102.23a8.28,8.28,0,0,0-8.41-3.82c-30.07,2.89-60.26,4.9-90.18,8.89-8.94,1.19-12.56-1.57-16.87-7.92-10.64-15.7-21.86-31-32.8-46.49A26.45,26.45,0,0,0,49,45.51c-7.29-4.63-12.92-10.88-17.82-17.9Q23,15.94,14.69,4.41c-3.24-4.49-7.87-5.64-11.57-3S-1,8.73,2,13.29c7.64,11.48,16.69,22,23.24,34.24a18.34,18.34,0,0,1,2.25,5c1.91,10.37,8.13,18.41,14.05,26.66,9.32,13,18.39,26.13,27.8,39,4.8,6.59,7.29,14.15,10.26,21.54.94,2.34-.2,4.21-1.09,6.14C73.71,156.28,69,166.73,64,177c-3.34,6.87-2.63,12.9,1.82,19.11,15.8,22,31.37,44.24,47,66.39l11.74,16.58c9.06,12.55,18,25.16,27,37.78Q197.67,381.83,243.64,446.83ZM109.11,145.24a37.79,37.79,0,0,1-7.43,5c-6.41,3.24-10.36,2.12-14.53-3.56a58.84,58.84,0,0,1-9.05-16.53,52.38,52.38,0,0,0-7.47-14Q53.25,91.72,36,67.26c-1.44-2-3.19-4-3.72-6.45C29.45,47.56,21.8,36.88,13.93,26.31c-3.27-4.61-6.52-9.24-9.82-13.83C1.87,9.36.6,6.29,4.31,3.36c3-2.39,6.23-1.68,9.31,2.38,3.71,4.91,7.18,10,10.75,15,7.41,10.4,14,21.48,25.55,28.23,2,1.18,3.34,3.65,4.78,5.67q17.24,24.18,34.36,48.42a54.13,54.13,0,0,0,11.15,12c4.57,3.52,7.85,8,11.44,12.39C117.7,134.84,115.67,139.67,109.11,145.24Zm88.13-41.1q-16.06,34.53-32,69.11c-.7,1.51-1.28,3.06-3.35,3.24-7.88.7-15.76,1.45-24.73,2.29.67-1.2.94-1.63,1.16-2.08q17.23-35.62,34.44-71.26a5.14,5.14,0,0,1,4.6-3.21c5.79-.46,11.58-1,17.35-1.61C197.89,100.26,198.63,101.16,197.24,104.14ZM239,154.67a5.57,5.57,0,0,1,1.24,3.55,1.93,1.93,0,0,0,.34.11,33.94,33.94,0,0,1-1.4,3.15c-1.18,2.49-2.37,5-3.6,7.45q-6.21,12.7-12.58,25.33c-4.23,8.43-8.46,16.85-12.79,25.23L207.38,225c-.8,1.65-1.68,3.24-2.63,4.79a1.29,1.29,0,0,1-.28-.08,3.72,3.72,0,0,1-.22.3c-.06-.09-.13-.17-.2-.26l-.07.05,0-.1-.13-.18h0c-1.22-1.67-3.29-4.58-3.52-4.9l-1.52-2.16-1.53-2.14c-.48-.67-.95-1.35-1.43-2l-4.48-6c-1-1.45-2-2.89-3.05-4.34l-.31-.44-.09-.12c-1-1.43-2.06-2.87-3.08-4.32s-2.05-2.88-3.05-4.33l-.35-.49c-4.64-6.13-9.09-12.39-13.57-18.64a5.84,5.84,0,0,1-.45-6.49q15.81-34.08,31.46-68.23c1.55-3.39,2.75-3,4.64-.31Q221.24,129.68,239,154.67ZM377.48,358.39q-5.12,11.34-10.36,22.64c-5.44,11.74-10.83,23.51-16.41,35.19-2.52,5.27-6.77,7.17-11.34,4.85-16.72-8.47-32.47-18.2-43.61-33.95q-38.19-54-76.52-107.88a18.58,18.58,0,0,1-3.33-6.63c-2.53-10.85-5.19-21.66-7.75-32.5-.37-1.6-1.09-3.55-.53-4.86,3.5-8.28,7.31-16.43,11-24.63l3-5.93a15.12,15.12,0,0,1,1-2.11c1.23-2,2.58-3.89,3.75-5.91,1-1.74,2-3.49,3-5.22,2.91-5.78,5.82-11.55,8.79-17.29.53-1,5.34-10.44,5.51-10.35a5.22,5.22,0,0,0,1.3.58,32.63,32.63,0,0,1-1.4,3.14q-1.76,3.75-3.6,7.45-1.44,3-2.9,5.89a38.28,38.28,0,0,0,3.37-4.35c.35-.54,1.12.1.78.63-1.71,2.68-4,4.92-6,7.4q-3.92,7.89-7.87,15.77-4,8.09-8.16,16.16c.4-.66.8-1.32,1.24-2,.54-.82.81-1.83,1.38-2.64.16-.23,1.65-2.9,3.78-6.66a67.14,67.14,0,0,1,6.1-10.65c1.32-2.27,2.66-4.53,3.93-6.64.68-1.39,1.38-2.77,2.19-4.08,0,0,0-.05,0,0,3-4.82,4.51-6.43,5.1-6.27-.21-.54.71,1.8,2.1,5.27l.16.25a.54.54,0,0,1,.09.37c2.76,6.89,7.14,17.57,8.54,19.65,24.26,36.22,50.5,71.07,75.68,106.65a97.29,97.29,0,0,0,10.48,12c9.36,9.49,20.89,15.79,32.45,22.07C379.77,347.75,380.82,351,377.48,358.39Zm-55.15,83.28c-18.24-26-36.7-51.89-55.09-77.81q-41.6-58.62-83.2-117.24a17.39,17.39,0,0,1-2.18-3.51c-.83-1.15-1.67-2.31-2.49-3.47s-1.46-2.09-2.2-3.13l0,0c-.05,0-6.79-9.3-10.44-14.51a7.71,7.71,0,0,1-.77-.9q-13.08-18.57-26.29-37c-2.16-3-.82-3.5,2-3.71,6-.44,11.92-.93,17.85-1.7,3.41-.45,5.58.66,7.51,3.47,5.74,8.38,11.68,16.61,17.59,24.86.09.12.17.25.25.38q1.43,2,2.84,4c.72,1,1.44,2,2.15,3.07.64.83,1.15,1.5,1.26,1.66l.7,1h0s1.51,2,1.31,1.76c.61.83,1.2,1.67,1.8,2.51.23.17,4.69,6.44,7.12,9.93a16.17,16.17,0,0,1,1.16,1.68,5.49,5.49,0,0,1,.39.61l0,0a26.4,26.4,0,0,1,2.34,6.29c2.54,10.33,5,20.68,7.39,31.05a30.62,30.62,0,0,0,5.11,11.23c22.79,32,45.93,63.72,68,96.17,12.83,18.84,28.9,33.21,49.17,43.26,8.6,4.27,13.58,2.87,17.63-5.83,6-12.94,12.14-25.84,17.88-38.91,3.83-8.73,9.23-16.83,11-27.57,3.37,4.75,6.23,8.93,9.26,13,2.35,3.17,2.47,6.3.83,9.8q-14.93,32.06-29.7,64.17c-2.31,5-6,7.7-11.51,8.18-6.28.56-12.6,1-18.82,1.92C327.61,447,324.94,445.4,322.33,441.67ZM130.21,179.47c-15.37,1.34-30.74,2.7-46.08,4.31-4.16.43-4.81-1-3.33-4.35,3-6.66,6.11-13.26,9-19.94,1.1-2.53,2.89-2.58,5.25-2.43,9.49.6,20.27-6.2,23.87-14.92,1.57-3.8,1.45-7.26-1.55-10.6a83.38,83.38,0,0,1-6.81-9.22c-3.14-4.62,1.19-13.94,6.7-14.5,6.76-.68,13.54-1.29,20.31-1.91,11-1,22-2,33.49-3a15.82,15.82,0,0,1-.62,2.41q-17,35.19-33.91,70.38C135.21,178.5,133.08,179.22,130.21,179.47Zm132.49,266c-26-37.06-52.26-73.9-78.45-110.81Q163.16,305,142.1,275.25l-18.19-25.57Q103.17,220.34,82.37,191c-2.93-4.16-2.59-4.84,2.42-5.33,15-1.46,30.09-2.71,45.11-4.31,3.67-.39,5.82.78,7.86,3.71,8,11.48,16.09,22.85,24.23,34.21.34.46.66.92,1,1.38.85.86,5.89,8.19,6.34,8.82s6.26,9.05,6.28,9h0c1.78,2.49,3.79,5.33,5.39,7.62.49.58,1,1.23,1.45,1.92q34.17,48.28,68.43,96.5,34.8,49.07,69.66,98.08c2.39,3.36,2.34,4.54-2.14,4.89-14.23,1.12-28.49,2.18-42.63,4C269.54,452.4,266.19,450.5,262.7,445.51ZM69.82,185.13c-6.41.21-7-.26-4.5-5.91,4.9-10.86,10-21.65,15-32.47l.73-1.62c.62-.7,1.12-.85,1.85-.51,3.4,1.59,6.59,10.26,5,13.9-3,6.64-6.81,13-8.92,19.91C77.29,183.64,74.65,185,69.82,185.13ZM246.26,446.5,102.61,243.93Q85.5,219.68,68.26,195.49c-5.55-7.83-5.53-7.77,4.13-8.77,3.11-.33,5.46-.12,6.62,3.45.59,1.83,2.08,3.38,3.23,5q18.62,26.27,37.26,52.5c.45.63.9,1.26,1.34,1.9.9,1.17,3.43,4.69,6,8.28l0,0c.13-.08,3.32,4.4,6.48,8.91s6.32,9,6.25,9a.39.39,0,0,1-.1.08c.41.54.82,1.12,1.23,1.7q29.94,42.39,60,84.68,20.07,28.29,40.13,56.57c7.13,10,14.22,20.1,21.39,30.1,1.73,2.42,1.85,3.51-1.63,4C254.35,453.83,249.92,451.89,246.26,446.5Z"/><path class="cls-1" d="M367.11,342.18C353.22,334.7,340.26,326,331,313q-39.73-55.65-79.18-111.5c-1.15-1.62-5.4-11.48-7.55-18.15-.19-.29-.39-.58-.6-.85a3.57,3.57,0,0,0-.87-.82,2.24,2.24,0,0,0-.91-.31h-.37a2,2,0,0,0-.38.07c-6.41,12.83-23.74,45.43-26.87,52.22a13.79,13.79,0,0,0-1.22,7.2c.24,6,2.79,11.64,4.16,17.46.48,2,1.18,3.82,3.66,4.11s3.54-1.36,4.4-3.24l25.32-55.54c1.17,1.65,2.12,3,3.06,4.32C277.77,242,302,276,326,310.15a99.46,99.46,0,0,0,28.75,27.23c5.62,3.54,11.46,6.73,17.26,10,3.72,2.08,4.71,4.86,2.92,8.73q-13.59,29.37-27.11,58.76c-1.77,3.85-4.71,4.57-8.19,2.76-17.11-8.88-32.65-19.51-44-35.79q-32.91-47.31-66.73-94c-6.39-8.81-9.86-18.37-13.24-28.56A66.19,66.19,0,0,1,213,248a.42.42,0,0,1-.38-.3c-.2-.84-.42-1.66-.65-2.49a.48.48,0,0,1-.09-.14,18.83,18.83,0,0,1-1-8.51,36.46,36.46,0,0,1,2.61-8.33l1.63-3.25c.23-.63.49-1.25.75-1.87l-1.24,2.45-2.88,5.55a54.26,54.26,0,0,1-2.63,4.79h0a15,15,0,0,0,.45,5.56q3.67,14.25,6.95,28.6a30.69,30.69,0,0,0,5.12,11.22c23.35,32.8,46.95,65.43,69.79,98.58,12.12,17.57,28.11,29.9,46.78,39.31,5.57,2.82,9.12,1.6,11.71-4,8.11-17.46,16.23-34.92,24.2-52.44C380.19,349.35,380.15,349.2,367.11,342.18ZM245.66,209.67q-8,17.61-16.14,35.21c-2.1,4.57-4.25,9.13-6.75,14.49-2.73-5.06-2.79-9.81-4.28-14.1-1.7-4.89-1-9.26,1.29-13.82,4-8,7.54-16.21,11.22-24.35l10.1-21.23C246.57,192,248.53,203.39,245.66,209.67Z"/><path class="cls-1" d="M204.76,230.71c-.06.09-.49.37,0,0Z"/><path class="cls-1" d="M300.38,303.34c6.41,8.19,12.39,16.72,18.34,25.27.93-.07,3.42.11,4.35.18.66-.2,1.22-1,1.77-2.27,1.2-2.79,2.49-5.55,3.76-8.34l.15.15c.08-.33.19-.66.29-1a14.69,14.69,0,0,1,.45-1.47c-7.21-10.31-14.55-20.55-21.83-30.81-.67-.94-1.31-1.89-2-2.8-3.31-4.35-4.12-3.95-7,.64C294,290.37,294.89,296.35,300.38,303.34Zm11.21,11.29c1.84,2,3.1,1.57,4.27-1,1.23-2.68,2.43-5.39,3.66-8.14,1.58,1.14,1.35,1.9.25,3.44-4.18,5.89-5,9-2.66,13.43Zm-9-12.74c1.48,1.71,2.79,1.46,4-1.1s2.33-5.21,3.65-8.16c2.06,1.29,1.7,2.13.49,3.8-4,5.56-4.9,8.85-2.71,13.05Z"/><path class="cls-1" d="M290.72,324.32c6.42,8.18,12.39,16.71,18.35,25.26.92-.07,3.41.12,4.34.19.66-.2,1.22-1,1.77-2.28,1.21-2.79,2.5-5.54,3.76-8.33l.16.14c.08-.33.18-.65.28-1,.13-.49.28-1,.45-1.46C312.62,326.54,305.28,316.31,298,306c-.66-.93-1.31-1.88-2-2.79-3.31-4.36-4.12-4-7,.63C284.29,311.35,285.23,317.32,290.72,324.32Zm11.21,11.28c1.84,2,3.11,1.57,4.27-1,1.24-2.69,2.43-5.39,3.67-8.14,1.57,1.14,1.34,1.9.25,3.43-4.19,5.9-5,9.06-2.67,13.44Zm-9-12.74c1.47,1.72,2.79,1.47,4-1.1s2.33-5.2,3.65-8.15c2.06,1.29,1.7,2.12.49,3.79-4,5.57-4.9,8.86-2.71,13.06Z"/><path class="cls-1" d="M277.7,346.34c6.42,8.18,12.39,16.71,18.35,25.26.93-.07,3.42.12,4.34.19.66-.2,1.22-1,1.78-2.28,1.2-2.79,2.49-5.54,3.75-8.33l.16.14c.08-.33.18-.65.29-1,.12-.49.27-1,.44-1.47-7.21-10.31-14.55-20.54-21.83-30.81-.66-.93-1.3-1.88-2-2.79-3.31-4.36-4.11-4-7,.63C271.28,333.37,272.21,339.34,277.7,346.34Zm11.22,11.28c1.83,2,3.1,1.57,4.26-.95,1.24-2.69,2.43-5.4,3.67-8.14,1.57,1.14,1.34,1.9.25,3.43-4.19,5.89-5,9.05-2.67,13.44Zm-9-12.74c1.48,1.72,2.79,1.47,3.95-1.1s2.33-5.2,3.65-8.15c2.06,1.28,1.7,2.12.49,3.79-4,5.56-4.89,8.86-2.7,13.06Z"/><path class="cls-1" d="M292.21,288c-3.3,4.32-5,.78-6.68-1.52-10.92-15.24-21.23-30.95-32.79-45.69-6.36-8.12-7.45-15.05-2-23.7,3.35-5.32,4.29-5.79,8.13-.74.8,1.06,1.54,2.16,2.31,3.24C271,233.39,280.83,247.1,290.46,261c3.24,4.67,7.72,8.87,7.51,15.28Zm-32.36-50.18c-1.53,3.38-3.29,3.3-5.29.35-1.55-2.28-3.19-4.51-4.76-6.77l40,56.31c0-2.45-1.56-2.44-2.28-3.22-7.66-8.22-8.15-12.67-1.89-22.22,1-1.6,1.94-2.66-.12-4.28-1.47,3.24-3,6.43-4.36,9.67s-2.76,3.75-5.18.7c-6.79-8.54-7.1-12-.69-21,1.26-1.78,1.53-2.67-.29-4-1.44,3.18-2.82,6.32-4.26,9.43s-3,3.49-5.38.6c-6.59-8-6.93-12-.66-20.6,1.41-1.93,1.83-2.9-.57-4.39C262.55,231.81,261.21,234.83,259.85,237.84Zm31.34,40.56c.92-2,2.82-4,1.69-6.45a18.38,18.38,0,0,0-5.23-7.11c-1.08-.8-1.7.65-2,1.5-1.32,3.5-4.89,6.74-1.42,10.89.42.51.77,1.08,1.16,1.62C288.77,283.67,288.81,283.69,291.19,278.4Z"/><path class="cls-1" d="M286.27,266.14l-2.67,5.72c-1.32,5.93,2.57,9.71,5.86,13.62,1.34,1.59,3,1.22,4.27-.62,5.07-7.31,5-11.66-.5-18.68C290.43,262.59,289.19,262.58,286.27,266.14Z"/><path class="cls-1" d="M282.29,310c-3.3,4.32-5,.77-6.68-1.52-10.92-15.25-21.23-31-32.79-45.7-6.36-8.11-7.45-15-2-23.69,3.35-5.33,4.29-5.79,8.13-.74.8,1.06,1.54,2.16,2.31,3.24,9.78,13.78,19.65,27.49,29.28,41.37,3.24,4.68,7.72,8.87,7.51,15.29Zm-32.36-50.18c-1.53,3.38-3.29,3.3-5.29.35-1.55-2.28-3.19-4.51-4.76-6.77l40,56.31c0-2.46-1.56-2.44-2.28-3.22-7.66-8.22-8.15-12.68-1.89-22.23,1-1.59,1.94-2.65-.12-4.27-1.47,3.24-3,6.43-4.36,9.66s-2.76,3.76-5.18.7c-6.79-8.53-7.1-12-.69-21.05,1.26-1.78,1.53-2.66-.29-4-1.44,3.19-2.82,6.33-4.26,9.44s-3,3.49-5.38.6c-6.59-8-6.93-12-.66-20.6,1.41-1.94,1.83-2.91-.57-4.4C252.63,253.79,251.29,256.82,249.93,259.83Zm31.34,40.56c.92-2.05,2.82-4.05,1.69-6.45a18.31,18.31,0,0,0-5.23-7.11c-1.08-.81-1.7.64-2,1.49-1.32,3.51-4.89,6.74-1.42,10.9.42.51.77,1.07,1.16,1.61C278.85,305.66,278.88,305.68,281.27,300.39Z"/><path class="cls-1" d="M270,331.66c-3.3,4.32-5,.78-6.68-1.52-10.91-15.25-21.23-31-32.79-45.7-6.36-8.11-7.44-15-2-23.69,3.35-5.32,4.28-5.79,8.12-.74.81,1.06,1.55,2.16,2.32,3.24,9.77,13.78,19.65,27.49,29.27,41.38,3.24,4.67,7.72,8.87,7.51,15.28ZM237.6,281.48c-1.53,3.38-3.28,3.3-5.29.35-1.55-2.28-3.18-4.51-4.75-6.77l39.95,56.31c0-2.45-1.55-2.44-2.28-3.22-7.66-8.22-8.15-12.68-1.89-22.23,1.05-1.59,1.94-2.65-.12-4.27-1.46,3.24-3,6.43-4.36,9.66s-2.75,3.76-5.18.71c-6.78-8.54-7.1-12-.69-21,1.26-1.78,1.54-2.67-.29-4-1.43,3.19-2.82,6.33-4.25,9.44s-3,3.49-5.39.6c-6.59-8-6.93-12-.65-20.6,1.4-1.94,1.82-2.9-.57-4.39C240.31,275.44,239,278.47,237.6,281.48ZM268.94,322c.92-2.05,2.83-4,1.7-6.45a18.4,18.4,0,0,0-5.24-7.11c-1.07-.81-1.7.64-2,1.5-1.32,3.5-4.9,6.74-1.42,10.89.42.51.77,1.08,1.15,1.62C266.52,327.31,266.56,327.33,268.94,322Z"/><path class="cls-1" d="M276.35,288.13l-2.67,5.72c-1.32,5.93,2.57,9.7,5.86,13.61,1.34,1.6,3,1.23,4.27-.61,5.07-7.31,5-11.66-.5-18.69C280.51,284.58,279.27,284.57,276.35,288.13Z"/><path class="cls-1" d="M306.06,387.82c1.05-2.44,2.17-4.84,3.28-7.25,7.87-17.16,15.8-34.3,23.57-51.52,1.78-3.92,3.37-4.66,6.71-1.34A82,82,0,0,0,354.11,339c2.28,1.43,2.72,3,1.58,5.39-2.29,4.78-4.46,9.62-6.68,14.44q-10.26,22.35-20.49,44.73c-1.1,2.4-2.17,4.17-5.12,2.23a100.47,100.47,0,0,1-16.76-13.61C305.3,391.05,305.36,389.45,306.06,387.82Zm17.54,15.62c3,2,3.23-1.17,3.92-2.66q11.84-25.48,23.49-51c3.5-7.68,3.4-7.66-3.34-12.66-3.06-2.28-6-4.74-8.88-7.23-2.06-1.78-3.3-1.55-4.46,1q-12.78,28.07-25.71,56.05c-.74,1.61-1.1,3.16-.55,3.68A91.48,91.48,0,0,0,323.6,403.44Z"/><path class="cls-1" d="M263.45,309.51l-2.52,5.38c-2.43,6.14,2.05,9.83,5.13,13.91,1.22,1.62,2.75,1.2,3.95-.57,4.77-7.08,4.13-13.22-2-19C266.27,307.57,264.88,308.18,263.45,309.51Z"/><path class="cls-1" d="M238.18,174.16q-1.62,3.15-3.22,6.3c.12-2.38-.29-5,2.39-6.47l1.2-.56C238.38,173.78,238.24,174,238.18,174.16Z"/><path class="cls-1" d="M240,175c.33-.66.65-1.34,1-2a1.3,1.3,0,0,1,.66,1.13c.42,3.9-1.15,6.31-4.86,7.44C237.84,179.35,238.92,177.17,240,175Z"/><path class="cls-1" d="M232.33,185.62a.93.93,0,0,1-.5-1c.14-2.42-.34-5.14,2.4-6.62l2.54-1.17h0Q234.56,181.21,232.33,185.62Z"/><path class="cls-1" d="M238.48,178.05a.13.13,0,0,1,0,.06c.37,3.37-.75,5.63-3.44,6.91C236.2,182.7,237.34,180.37,238.48,178.05Z"/><path class="cls-1" d="M211.75,231.1l2.88-5.55c4.32-8.38,8.55-16.81,12.78-25.23q4.18-8.32,8.31-16.67c-2.62,7.37-8.38,19.67-17.34,37.08-4,7.87-7.51,13.65-8.8,14.37C210.36,233.79,211.09,232.47,211.75,231.1Z"/><path class="cls-1" d="M213,214.51q5.56-11.35,11.16-22.71c4.5-8.27,8.14-14.43,10.14-15.69,1.61-1,2.58-1.05,2.92-.09q-6,11.65-11.84,23.37Q219,212,212.81,224.72q-1.83,3.71-3.59,7.45c-.48.93-.9,1.89-1.29,2.86C205.54,235,203.17,234.94,213,214.51Z"/><path class="cls-1" d="M345.05,380c1.51-3.49,3.16-6.91,4.56-10.43,1.48-3.73,4-5.25,7.78-3.76s4.79,4.44,3.33,8.09c-1.6,4-3.26,7.95-5.22,11.75s-7.05,4-10.17-.09C344.15,384.22,344.14,382.16,345.05,380Zm1.56,2.72c-.37,1.91,1,3.06,2.71,3.67a3.19,3.19,0,0,0,4.25-1.55q2.94-6,5.44-12.23c.79-1.94-.27-3.56-2-4.62-1.4-.88-2.83-.72-4.66.66C350.42,373,347.63,377.51,346.61,382.76Z"/><path class="cls-1" d="M208.24,202.64q1.13-2.28,2.26-4.55c1.23-2.47,2.47-4.94,3.73-7.39.44-.86.87-1.73,1.36-2.56l.07-.11a34.28,34.28,0,0,1,1.88-4.7q1.91-4.17,3.82-8.32a33.35,33.35,0,0,0-9.21-40.26c-6.09-5.09-14.85-3.93-18.43,3.1-4.94,9.7-9.86,19.52-13.54,29.74-5.5,15.23,2.77,31.81,17.63,37.85a4.3,4.3,0,0,1,1.23,0C202.51,206.16,205.53,204.6,208.24,202.64Zm.06-5.67c-3.55,7.16-11.92,7.91-16.86,1.82-1.23-1.52-2.29-3.19-4-5.58-5.65-6.53-8.59-15-5.1-24.09a317.82,317.82,0,0,1,13.53-29.65c3-5.85,9.61-7.16,14.32-2.65,9,8.6,15.48,20.48,10.28,33.44C216.85,179.33,212.65,188.21,208.3,197Z"/></g></g></svg>