<svg xmlns="http://www.w3.org/2000/svg" viewBox="0 0 793.49 743.56"><defs><style>.cls-1{fill:#fff;}</style></defs><g id="Camada_2" data-name="Camada 2"><g id="Camada_1-2" data-name="Camada 1"><path class="cls-1" d="M784.3,416.77c-17.76-16.26-36.44-31.21-57.57-42.59-16.84-9.1-30.62-1.95-43.49,8.13-14.39,11.38-26.33,11.05-42.26.65-45-29.59-91.88-56.89-137.51-85.18-17.15-10.4-17.15-13.65-2.14-27,21.74-19.18,20.21-41.61-3.68-57.87-11-7.47-23.27-10.07-36.13-10.72-4.6-.33-9.19-.33-13.48-1,0,1.3-12.25-1.3-12.55,0,1.22,1.3.61,7.48,1.53,9.43,1.22.65,16.53.32,17.76,1,.61.33,1.23.33,1.53.65a14.83,14.83,0,0,1,3.68.65c1.22.33,2.45.65,3.37,1H464a2.3,2.3,0,0,1,1.53.65h.92c.3,0,.61.33.92.33h.92c.91.32,1.53.65,2.44,1a14.7,14.7,0,0,1,5.21,1.95,10.67,10.67,0,0,1,3.37,1.3l2.76,1a15.37,15.37,0,0,1,4.9,2.92c.91.65,1.83,1,2.75,1.63,14.4,9.43,15,22.75,2.45,34.13-23,21.46-22.35,34.46,4,50.72,46.55,28.61,92.8,57.21,139.65,85.5,8.88,5.2,14.7,9.75,9.19,22.1-4.9,11.38,0,21.13,10.41,27.31,22.36,13.65,45,27.63,67.38,41.29,5.82,3.57,12.25,6.17,18.68,1.95,14.7-9.11,29.71-17.23,43.79-27.31C796.25,453.83,796.55,428.15,784.3,416.77Zm-48.38-17.88c4.9-3.25,8.57-3.9,12.86,0,9.19,8.13,25.73,12,26.64,23.4.92,9.76-16.23,12.36-24.8,18.86-3.37,2.6-7.35,4.23-11,6.5-5.82,3.58-11,3.9-16.84-.32-9.19-7.16-18.38-14-28.48-21.78C709.58,416.12,723.05,408,735.92,398.89Zm42.56,49.74c-13.47,8.45-26.94,16.9-40.73,24.7-4.59,2.61-9.49,0-13.78-2.6-20.82-12.68-41.65-25.35-62.47-38.36-4-2.6-8.58-5.2-8.88-11.38,1.22-5.85,4.59-8.45,10.72-6.82,9.18,2.27,16.84,7.47,23.58,14,26.34,26,53,39.33,84.52,8.45,2.76-2.6,7.66-6.5,11-1.3C785.22,440.5,783.08,445.7,778.48,448.63Z"/><path class="cls-1" d="M710.19,504.54C675,475.94,639.14,448,604.23,419c-13.47-11.05-26-12-40.43-2.6-21.74,14.31-44.4,27-66.15,41-7.34,4.56-13.78,6.18-21.13.33-9.18-7.48-17.45-4.88-26.64,1Q362.6,512.84,275,566.31c-4.59,2.93-8.88,7.48-16.54,5.53,1.84-8.13,8.27-9.11,12.87-12,43.79-26.66,87.58-53.32,131.68-79.32,12.87-7.48,23-16.26,22.05-33.49-.3-6.83,3.68-11.05,9.19-13.65,15.62-7.8,20.21-20.81,18.68-38.69C448,342.32,444.06,290.31,439.47,238c-3.68-43.57-8.27-87.13-11-131C427.22,85.5,421.7,71.84,400.27,64c-49-18.2-97.08-39.66-145.16-60.79-11-4.88-20.22-4.55-30,2.93a144.38,144.38,0,0,1-21.13,13c-19.6,9.43-32.15,24.38-39.81,46.16-10.41,29.91-40.73,43.24-68.6,31.86C87.89,94,81.16,93.63,73.81,98.83a125.11,125.11,0,0,1-22.67,13.65C12.25,130.36,1.22,165.15,1.22,206.11q-.45,92.64.31,185.3a37.44,37.44,0,0,1-1.22,10.4C1.22,411.24,0,420.67,0,430.1c1.53,1.3,2.14,4.22,1.22,8.77-4.89,27,9.5,39.34,29.71,51C84.52,521.12,137.51,554,189.87,587.44c13.79,8.78,24.81,9.1,37.67-.32,5.21-3.91,12.87-13.33,18.07-6.18,6.13,8.13,12.25,19.18,8.88,31.21-7.65,26.66-8,26.66,12.56,42.91,33.08,26.33,66.15,52.67,98.61,79.65,12.86,10.73,24.5,11.7,39.2,2.92,98.92-60.46,198.45-120.28,297.68-180.42,6.73-4.23,12.25-9.11,15.92-16.91C726.73,520.15,726.42,517.87,710.19,504.54ZM438.55,396.29c.92,11-2.45,18.53-11.64,24-54.51,32.84-108.72,66.32-163.23,99.81-10.11,6.17-13.17,3.57-13.78-8.13-2.15-30.88-5.21-61.44-7.66-92-5.51-63.39-10.72-127.11-16.23-190.51-.92-8.45,0-16.25,8-21.13q83.61-51.19,166.91-102.08c8.57-5.2,12.86-3.57,13.47,7.81.92,17.23,2.46,34.46,4,51.69C425.07,242.19,431.81,319.24,438.55,396.29ZM175.17,58.19c.92-4.23,3.07-7.8,4.9-11.7,1.54-3.25,3.37-4.88,7.05-2.93,13.17,6.5,26.64,12.68,42.57,20.16-11.33,7.15-19.6,13-28.48,18.2a28.9,28.9,0,0,1-30.32-2C164.15,74.77,173.34,65.67,175.17,58.19Zm12.25,41c13.48-8.45,27.26-16.9,41-25,5.21-3.25,11.95-4.55,14.7,1.63s-4.29,7.15-8,9.42c-18.68,11.71-37.67,23.41-56.66,35.11-7.35,4.23-14.7,7.81-23.27.33C164.76,110.86,176.71,106,187.42,99.15Zm.31,441.48c.31,7.47,0,15.28,0,22.75.31,8.46-.92,12.68-10.11,7.16Q98.15,521.28,18.68,473c-7-4.23-9.8-9.75-9.8-18.21.31-88.42-.92-176.52.92-265,.31-21.13,7-43.56,26-57.54C49,123.86,62.17,115.73,75,107c7-4.87,13.78-5.2,21.44-1.62,20.21,9.1,40.73,16.9,60.94,26,8,3.57,14.4,2.6,21.44-2C204,113.78,229.07,98.5,254.19,82.9c3.67-2.28,9.8-3.9,9.18-9.75-.61-5.53-6.73-5.86-10.72-7.81-12.24-5.2-24.8-10.07-37.05-15.6-8.27-3.58-17.15-5.85-26.34-13.33,16.85-10.08,31.85-19.18,46.86-28.28a10.77,10.77,0,0,1,10.41-.65c32.77,14.63,67.07,26,98.92,43.23,10.41,4.23,20.52,8.78,30.93,13,10.41,7.8-.61,8.45-3.67,10.4-57,35.11-113.62,70.55-170.89,105-12.25,7.47-18.07,16.9-16.54,31.53.92,11.38,2.14,22.76,3.06,33.81,4.6,54.29,9.5,108.9,14.09,163.2,2.76,33.48,5.21,67,8,100.12.31,5.86,2.15,13-7,12.68C189.87,521.12,187.42,529.25,187.73,540.63Zm34-.33c-19.6-3.57-20.82,8.46-19.29,24.06a70.78,70.78,0,0,1-.31,11.38c-.3,2.6-.3,6.18-4,5.53-1.83-.33-4.28-2.28-4.59-3.58-2.14-15.6-3.37-31.21.92-46.49.92-3.25,4.29-4.88,7.65-4.23,15.93,3.58,15-7.8,14.09-18.53-3.37-41.61-7-82.89-10.72-124.51-4.9-57.21-9.18-114.1-14.08-171.32-1.23-13.33,3.06-22.43,14.39-29.26Q294,129.71,382.2,75.42c7-4.23,14.09-6.83,23,.65-4,2.93-6.74,4.88-9.8,6.83-56.66,34.46-113,69.24-169.66,103.7-14.4,8.78-24.5,18.86-22.36,38.36,2.76,27,4.59,54,7,80.63,6.43,74.12,13.17,148.56,19.6,222.68C230.61,535.43,229.69,541.93,221.72,540.3Zm13.17-21.13c-4.9-54.94-9.8-109.88-14.39-164.82-3.68-44.21-6.74-88.43-10.72-132.64-1.22-13,3.68-20.8,14.39-27.31,57.27-34.46,113.93-69.89,170.89-104.68,22.36-13.65,23.58-13,24.19,15.28-2.44-14-9.8-11.7-18.06-6.82q-84.07,51.69-168.13,103c-11,6.83-15,15.61-13.17,29.58,3.67,27.31,5.2,54.94,7.35,82.25,5.51,65,10.72,130.37,16.23,195.38.61,6.83.61,14.31,4.9,20.16,3.37,4.55,3.67,7.15-1.53,9.75-4.6,2.28-8.27,1.3-9.8-3.57A82.9,82.9,0,0,1,234.89,519.17ZM237.34,552c8.27-4.56,15.62-8.13,22.67-12.36,46.85-28.61,93.4-57.54,140.26-86.15,4.59-2.92,11-11.05,15.31-4.22s-1.53,14-8,18.85a67.72,67.72,0,0,1-8,4.88C354,500.64,308.09,528,263.07,555.91,252.65,562.41,245.31,561.76,237.34,552ZM494,595.24c31.24-19.5,62.48-38.68,94-57.86a67.62,67.62,0,0,1,6.74-3.58c3.67-1.3,7.35-.32,9.18,3.58,2.45,4.87-1.83,6.5-4.59,8.45-6.43,4.23-13.17,8.45-19.91,12.35-26.33,16.26-53,32.51-79.31,48.77-6.13,3.9-11.34,4.87-15-3.26C486.32,598.82,490.61,597.19,494,595.24Zm-200.29,2c8-4.55,15.62-11.05,24.2-13,6.12-1.3,4.59,10.73,11,13.65,3.06,1.31,5.51,4.56,8.58,6.83C353.41,618,370,631,385.57,645c10.1,9.1,19,11.71,29.7,2.28,8.58-7.48,16.54-6.5,24.2,1.62,6.74,7.16,13.17,5.53,20.52.65,59.71-37.38,119.74-74.12,179.76-111.18,12.56-7.8,29.41-13.65,13.48-34.13-.61-.65-.31-2.28-.31-3.25,3.68-13.66-5.51-19.18-13.78-26-20.52-16.58-40.73-33.81-61.86-51.37,8.88-6.82,15.31-4.22,21.74,1,31.24,25.36,62.48,50.72,94,75.42,9.19,7.15,7,11.05-1.53,15.93L409.45,686.6c-6.73,4.22-13.47,5.52-19.9,0-32.16-25.69-64.31-51.7-96.47-77.38C288.18,605,287,601.1,293.69,597.19ZM705.6,532.5Q557.68,622.23,409.45,712c-4.9,2.93-10.1,5.53-15.92,5.2a19.92,19.92,0,0,1-12.86-4.22c-37.37-29.91-74.73-60.15-112.09-90-4.29-3.58-8.27-8.13-2.76-13,4.6-3.9,9.19-10.72,16.85-3.25,31.54,29.91,67.07,54.62,100.14,82.57,10.41,9.11,19.6,9.76,31.85,2.28q141-86.31,282.67-171.32c5.51-3.26,12.25-9.43,17.15-.65C719.38,527.62,709.89,529.9,705.6,532.5Z"/><path class="cls-1" d="M344.84,51.36C331.36,53.31,321,43.89,309,40a432.65,432.65,0,0,1-52.06-21.46c-13.16-6.5-23.88-5.2-35.22,3.9-5.81,4.88-12.86,8.13-22.05,14,24.81,10.73,46.55,21.13,68.91,29.91,16.84,6.5,34.3,12,50.53,20.48s37.37,0,56.66-22.11C365.35,59.82,355.25,55.59,344.84,51.36Z"/><path class="cls-1" d="M35.22,132c1.22,6.17,5.82,8.77,10.41,10.73,41.65,17.55,83.3,34.78,125.26,52.33a66.24,66.24,0,0,0,8.57,2c-8-11.38-20.52-10.41-27.56-20.16,26.34,18.86,45.32,2,66.76-14.3-14.09-6.51-26.64-12.36-39.5-17.88-27.26-12-56-20.16-83-33.81-8-4.23-15.62-2.6-24.19,2C59.72,119.63,51.14,134.26,35.22,132Z"/><path class="cls-1" d="M182.22,548.76c1.22-10.41-6.13-15-14.09-19.51-45.94-28-91.57-56.24-137.51-83.87-4.59-2.93-11-11.06-15.31-3.26-4.29,7.48-4.59,18.21,4,24.71,8,5.85,16.54,10.73,24.81,15.93q62,38,124.34,76.07C179.77,565.66,182.52,563.38,182.22,548.76Z"/><path class="cls-1" d="M404.55,319.89C358.92,347.2,313.6,375.48,268,403.11c-13.78,8.46-18.07,6.51-19.6-10.4-4.9-52.66-9.5-105.33-14.09-158-.92-11.06,3.68-18.53,12.56-23.74,47.77-29.25,95.24-58.51,143-87.45,12.24-7.47,17.76-4.55,19,10.73,4.6,50.72,8.58,101.11,12.86,155.07C424.77,302,418,312.09,404.55,319.89ZM386.18,153.12c-2.45-11.7-6.13-15.61-17.46-8.45-38,24.05-76.56,47.46-115.15,70.54-8.26,5.2-12.86,11-11.94,22.11,4,42.58,8.27,84.85,11.33,127.43.92,12.36,4.59,13.33,14.09,8.78,36.75-18.53,72.58-39,106.27-63.39,16.54-12,25.11-26,22.66-47.14-.61-4.23,0-8.78,0-13A487.76,487.76,0,0,0,386.18,153.12Zm16.84-12c-.3-4.55,1.84-13-6.12-12-7.66,1-8.88,7.15-7,15,7.34,28.28,9.8,57.21,11.94,86.47a299.63,299.63,0,0,1-1.53,54.94c-1.23,10.08-7.35,16.26-14.4,21.78-34.3,28.28-72.88,49.42-111.78,69.57a110.23,110.23,0,0,0-13.47,7.48,9.27,9.27,0,0,0-3.07,12.68c3.07,5.2,7.35,1.3,10.72-.65,46.86-28.61,93.41-57.22,140.27-85.83,6.43-3.9,9.18-9.75,7.65-20.8C411.91,242.19,407.62,191.8,403,141.09Z"/><path class="cls-1" d="M255.41,455.46c0,19.83,5.21,24.05,18.38,13.32,23.58-19.18,48.39-35.76,73.5-51.69,5.2-3.25,8.88-8.45,4.9-14.95s-9.19-1.95-13.48.65c-8,4.55-16.84,8.45-23.58,14.63-14.09,12.68-33.69,9.75-48.69,20.48C259.39,443.1,253.57,447.33,255.41,455.46Z"/></g></g></svg>