<svg xmlns="http://www.w3.org/2000/svg" viewBox="0 0 732.03 744.09"><g id="Camada_2" data-name="Camada 2"><g id="Camada_1-2" data-name="Camada 1"><path d="M669.42,266.45c0,31,.08,62.13-.08,93.15,0,3.73,1.35,5.71,4.44,7.46,13.48,7.62,26.73,15.47,40.21,23.09,4.84,2.77,7.45,6.82,7.45,12.22.16,16.5.08,33,0,49.51,0,2.3-.39,4.52-2.3,6.11-1.43,1.19-1.27,2.77-1.27,4.36,0,6.19-.23,12.46.08,18.65.16,3.88-1.11,6.18-4.6,8.17q-60.18,34.4-120.21,69c-17.84,10.23-35.69,20.55-53.53,30.78a7,7,0,0,0-3.49,4.84c-1,3.73-2.85,7.14-2.46,11.35.32,3.89,1.67,6.9,5,8.88,9,5.24,18,10.56,27.12,15.63,3.25,1.83,8.88-1.11,8.88-4.76-.08-15.55,8.8-25.47,20.86-33.32,12.53-8.17,26.64-12.06,41.31-13.81,20.22-2.46,40-.47,59.08,7.07,10.54,4.2,20.46,9.6,27.2,19.12,13.56,19.12,11.89,37.13-6.58,51.81-11.34,9-24.67,13.65-38.7,16.18-21.81,3.89-43.38,2.62-64.31-5a74.29,74.29,0,0,1-27.68-17.3c-4.6-4.6-10.94-6.82-16.41-10.16-1.35-.79-2.54-.16-3.73.56-15.7,9-31.32,18.09-47,27.13-3,1.75-2.46,5.32-4,7.78-.47.71,1,1.35,1.75,1.82,2.69,1.59,5.47,3.18,8.24,4.76,6,3.58,6.35,11.51.32,15.24-7.45,4.68-15.22,9-22.92,13.41-17.68,10.23-35.52,20.31-53.13,30.78a19.3,19.3,0,0,1-20.3.4c-18.15-10-36-20.55-53.84-31-5.39-3.18-4.68-10.64,1.11-13.81Q410.12,678.24,444.3,660c4.91-2.61,9.83-5.07,14.67-7.85,5.23-2.94,10.22-2.78,15.3.32,6.11,3.65,12.37,7.06,18.48,10.79,2.69,1.66,5.07,2.06,8.08.63,3.57-1.66,7.06-4.44,11.34-1.43.8.56,1.75-.31,2.54-.79,14.67-8.41,29.26-16.9,43.93-25.31,2.54-1.43,1.83-2.14-.23-3.25-6.82-3.81-13.33-8.1-20.31-11.59-8.64-4.44-12-11.34-11.49-20.71.08-1.11.71-2.54-.64-3.25s-2.22.48-3.17,1c-2,1.11-3.89,2.22-5.87,3.33-5.23,3-7,2.86-11.65-.87-1.59-1.27-1.75-2.85-1.75-4.6,0-3.81-.08-7.7,0-11.5,0-2.23-.71-2.54-2.54-1.43-5.15,3-10.31,5.87-15.38,9a7.52,7.52,0,0,1-8.49.08q-65.06-38-130.52-75.61l-119-68.79c-.55-.32-1.11-.64-1.74-.95a4.08,4.08,0,0,0-5.47,1.82c-.8,1.51,1.66,2,2.77,2.62Q309.81,502.1,396.4,552.4q25.46,14.88,51.07,29.6a6.19,6.19,0,0,1,3.57,5.24c.47,4.68,1.19,9.44,2,14.12a4.44,4.44,0,0,1-2.22,5c-1.51.87-2.78,2-4.28,2.77a7.35,7.35,0,0,0-4.52,6.75c-.24,3.41-2.38,6.43-5.16,8.57-2.62,2.06-5.47,2.77-8.4.63-2.46-1.74-4.37-1.27-6.74.32Q373.64,657.17,325.51,689c-2.94,2-5.08,2.07-8.17.24Q210,626.71,102.68,564.31,55.1,536.69,7.44,509.08c-3.49-2-5.71-4.2-5.79-8.49A51.35,51.35,0,0,0,.23,489.64c-.8-3.33.55-5.07,3.17-6.74q30.93-20.36,61.77-40.78c20.7-13.65,41.47-27.22,62.09-41,3.09-2.07,5.31-2.15,8.57-.24,24.34,14.36,48.76,28.48,73.19,42.69a14.67,14.67,0,0,0,2.46,1.27,4,4,0,0,0,4.83-1.75c1-1.83-1.5-2.06-2.45-2.62-19.75-11.5-39.42-23-59.32-34.27-6.26-3.5-9-8.34-9-15.4.16-15.07.16-30.15,0-45.14-.08-4.92,1.51-8,6-10.48,11.81-6.42,23.31-13.41,35.13-20,2.85-1.59,4.36-3.57,4.44-6.82.15-4.13.31-8.18.55-12.3.16-2.15.48-4.21,3.25-4.76,1.91-.4,1.83-1.91,1.91-3.42,1.11-20.7,2.14-41.41,3.33-62q2.61-44.64,5.31-89.34c1.19-20.55,2.22-41.1,3.33-61.65.87-15.39,1.82-30.87,2.54-46.26.16-3.89,1.58-5.79,5.55-6.74q41.87-10.59,83.5-21.5a8,8,0,0,1,6.74,1c8.17,4.84,16.49,9.52,24.66,14.36a17.21,17.21,0,0,0,9,2.46c21.49-.08,43.06,0,64.55,0a14.93,14.93,0,0,1,7.53,1.9Q535.17,90.59,657.37,161.24a38.7,38.7,0,0,0,5.55,3.1c5.39,2,6.82,5.63,6.74,11.34C669.26,205.91,669.42,236.14,669.42,266.45ZM506.31,311V451.64c0,4.76.15,4.84,3.72,2.7q76.13-43.92,152.26-87.92a6,6,0,0,0,3.48-5.95c-.15-12.53-.07-25.07-.07-37.68,0-4.29-.08-4.29-3.65-2.23-17.37,10-34.73,20.08-52.18,30.07-1.11.64-2.78,2.46-3.73.88s1.59-1.91,2.54-2.86a6.43,6.43,0,0,1,.71-.4c14.52-8.41,29-16.74,43.54-25.15,3.8-2.14,7.53-4.36,11.26-6.58,1.11-.72,1.9-1.83,1.27-2.94-.87-1.35-1.83.08-2.62.56-5.39,3-10.78,6.19-16.18,9.28-12.37,7.14-24.66,14.28-37,21.34-1,.64-2.62,2.15-3.41.72-1-1.75,1.43-2,2.38-2.86a6.43,6.43,0,0,1,.71-.4q26.9-15.59,53.85-31.1c1.27-.71,3.17-1.51,2.3-3.09-1-1.91-2.54,0-3.57.55-14.2,8.1-28.39,16.35-42.5,24.52-3.34,1.9-6.59,3.89-9.92,5.71-1,.56-2.3,1.83-3.09.56-1-1.43.87-1.83,1.82-2.46,1.43-1,2.94-1.75,4.44-2.62,16.9-9.76,33.87-19.52,50.76-29.36,1.34-.79,3.25-1.82,2.06-3.57-1-1.35-2.3.4-3.33,1-17,9.76-34.1,19.68-51.15,29.44-1.43.79-3.49,3.25-4.6,1.35s2.06-2.46,3.57-3.33c17.68-10.32,35.45-20.47,53.13-30.71,1.51-.87,3.65-1.9,2.46-3.73-1-1.51-2.54.48-3.65,1.11q-26.17,15-52.18,30c-1,.64-2.54,2.07-3.41.64s1.27-1.9,2.14-2.62c.32-.24.72-.4,1-.63,17.53-10.08,35-20.24,52.42-30.31a18.48,18.48,0,0,0,3.25-2.22,1.46,1.46,0,0,0,.16-2.15c-.56-.63-1.19-.16-1.82.08a18.5,18.5,0,0,0-2.07,1.11c-17,9.84-34,19.68-51.06,29.52a17,17,0,0,1-2.86,1.43,1.58,1.58,0,0,1-1.35-.32,1,1,0,0,1,.32-1.35,23.77,23.77,0,0,1,2.62-1.74c7.69-4.45,15.3-8.81,23-13.25,10.15-5.88,20.38-11.75,30.53-17.7,1.43-.79,3.89-1.74,2.78-3.57s-2.7.32-3.81.95c-11.26,6.35-22.44,12.86-33.62,19.36-6.5,3.73-13,7.54-19.59,11.27-.79.48-1.74,1.11-2.38-.08-.47-.87.48-1.43,1.11-1.82,2.86-1.75,5.63-3.42,8.49-5,15.78-9.13,31.56-18.17,47.34-27.3,1.43-.87,3.65-1.9,2.3-3.81-1-1.42-2.54.56-3.65,1.19C644.36,288,627.24,298,610.11,307.87c-1.27.71-3,2.7-4.05.95s1.67-2.22,2.94-2.93q26.76-15.48,53.44-30.95c1.35-.79,3.89-1.66,2.7-3.57-1-1.74-2.78.32-4,.95-16.74,9.6-33.39,19.28-50.12,28.8-1.51.88-3.73,3.5-4.92,1.51-1-1.74,2.3-2.62,3.89-3.57,17.36-10.07,34.73-20.07,52.1-30.15a14.35,14.35,0,0,0,2.85-2.06,1.5,1.5,0,0,0,.08-2.14c-.55-.64-1.19,0-1.74.23-1,.56-2.07,1.12-3.1,1.75-17.05,9.84-34,19.68-51.06,29.52-1,.55-2.3,1.9-3.1.71-1-1.67,1-2.06,2.06-2.7,9-5.31,18-10.47,27-15.71,9.35-5.39,18.79-10.79,28.15-16.18,1.27-.72,2.93-1.75,2.06-3.34-1-1.82-2.3.08-3.25.64-12.61,7.22-25.14,14.52-37.75,21.74-5.39,3.09-10.7,6.19-16.18,9.28-.71.4-1.74,1.11-2.37-.08-.48-.87.47-1.35,1.11-1.82a15.37,15.37,0,0,1,2.06-1.19q26.76-15.48,53.44-30.95c1.43-.79,3.89-1.58,2.62-3.57-1-1.58-2.77.4-4,1.11-16.34,9.37-32.67,18.89-49.09,28.25-1.82,1-4.28,4.05-5.87,1.9-1-1.42,2.86-2.77,4.68-3.8,17-9.92,34-19.68,51.07-29.6,1.59-1,4.6-1.82,3.25-4.05-1.11-1.74-3.17.8-4.6,1.59-16.41,9.36-32.67,18.88-49.08,28.25-1.67.95-4.29,3.65-5.32,1.82-1.19-1.9,2.38-2.77,4.05-3.73,17.36-10.07,34.65-20.15,52.1-30.15a5.66,5.66,0,0,0,3.33-5.63c-.08-21.42-.16-42.77,0-64.19,0-3.57-1.11-4.52-4.52-4.44q-49.49.12-99,.16c-2.53,0-3.41-1-3.25-3.26.16-3.33.56-6.58.64-9.84.16-5,.08-5-4.6-3.8-14.59,3.73-29.1,7.69-43.7,11.18-4,1-5.15,2.62-5.15,6.67C506.39,218,506.31,264.47,506.31,311Zm-335.75,17.7c2.14,1.27,3.73,2.22,5.31,3.09,13.16,7.62,26.33,15.16,39.41,22.77Q306.17,407,397,459.49q49.24,28.45,98.41,56.81c4.76,2.78,7.3,6.67,7.06,12.3-.16,5,.08,10.08-.08,15.08-.08,3.09.72,3.81,3.57,2.14,8.64-5.08,17.37-10.08,26-15.08Q623,478.38,714.15,425.85c2.3-1.35,3.41-2.85,3.33-5.63q-.24-8.93,0-17.85a9.14,9.14,0,0,0-4.68-8.57Q691.38,381.31,670,369c-3.33-1.9-8.41.88-8.33,4.68s-1.66,5.32-4.52,7q-90.51,52.25-181,104.57c-3,1.75-5.31,1.83-8.32.08Q347.52,415.65,227.1,346.19c-3.17-1.82-6.11-3.57-6.74-7.62-.24-1.66-2-2.38-3.33-3.17-7.46-4.28-14.91-8.57-22.29-12.85-1.66-.95-3.64-1.59-4.28-3.81-.55-1.83-1.66-.64-2.46-.24C182.45,321.75,176.82,325,170.56,328.66Zm37.9-37.53c-.63,3.09.56,5.31,4,7.3Q283,338.89,353.42,379.75q45.07,26.07,90.16,52.05c2.14,1.27,3.57,2.38,3.65-1.58.08-7.54.55-15,1-22.54,1.19-20.55,2.46-41.1,3.65-61.65.95-16.34,1.74-32.69,2.61-49,1.19-21.58,2.54-43.16,3.73-64.82.87-15.4,1.35-30.87,2.78-46.26.47-5.16-.8-7.7-5.16-10.24q-86.72-49.62-173.18-99.81C263.81,65,245,54.05,226.15,43.18c-1.51-.87-3.25-2.7-3.49,1.19-.72,12.78-1.59,25.55-2.3,38.32-.87,16.19-1.67,32.45-2.62,48.64-1.27,22.3-2.54,44.51-3.81,66.81-.55,10.31-1.11,20.55-1.74,30.86C211,249.47,209.73,270,208.46,291.13ZM131.7,403a31.16,31.16,0,0,0-2.77,1.59L7.6,484.57c-2.38,1.58-2.62,2.3,0,3.8,10,5.64,19.9,11.51,29.82,17.22q139.17,80.94,278.17,161.78c2.46,1.43,4.05,1.27,6.35-.24Q381.06,628,440.25,589.06c5.63-3.73,5.63-3.65-.4-7.22Q350.53,530,261.2,478q-63.52-36.9-127-73.79A23.63,23.63,0,0,1,131.7,403Zm372.47-90.45V173.94c0-1.19-.08-2.38,0-3.57.15-2.54-1-3.33-3.41-2.7-8.41,2.22-16.82,4.44-25.3,6.51-1.9.47-2.46,1.58-2.54,3.41-.71,12.61-1.5,25.31-2.22,37.92-.87,16-1.66,31.9-2.62,47.85-1.18,20.71-2.53,41.34-3.72,62-.95,16.19-1.67,32.38-2.62,48.64-1.19,21-2.54,41.89-3.73,62.76-.15,2.86.32,5.95-3.64,6.91-1.35.31-1.11,1.9-1.27,3.09-1,5-.4,10-.87,15-.4,4.28-.16,4.44,4.2,3.72,14.19-2.3,28.31-4.68,42.58-6.74,4.05-.56,5.39-2.06,5.39-6.27Q504.06,382.45,504.17,312.55Zm53.52-162.1c-2.14-1.35-3.25-2.14-4.52-2.77q-42.46-24.52-85-49.12Q388.12,52.27,308.06,6a11.56,11.56,0,0,0-9.67-1.27c-11.74,3.17-23.48,6.11-35.21,9.12-3.73,1-7.46,2.07-11.82,3.26,2,1.19,3.18,2,4.44,2.69Q325,59.88,394.26,99.83q53.64,30.94,107.29,62c1.82,1,3.57,2.3,5.87,1.66C523.75,159.18,540.09,155,557.69,150.45ZM383,496.94c0-6.58-.16-13.25.08-19.83.08-2.78-1-4.29-3.33-5.64q-71.25-41.06-142.34-82.12c-3.33-1.9-3.73-1.74-3.73,2.07,0,12.77.08,25.63-.08,38.4,0,3.17,1,5,3.81,6.58q45.32,26.07,90.56,52.21c17.12,9.92,34.33,19.76,51.38,29.76,2.85,1.66,3.81,1.42,3.73-2.15C382.92,509.88,383,503.45,383,496.94Zm118.79-332c-1.91-1.19-3-1.9-4.21-2.54l-90.16-52.12Q329.39,65,251.13,19.85a9.34,9.34,0,0,0-7.54-1c-7.37,2.06-14.83,3.89-22.2,5.79-.95.24-2.14.16-2.62,1.51l4.76,2.86Q288,66.31,352.47,103.48q58.15,33.57,116.25,67.2c1.58,1,3.09,2.07,5.15,1.51C482.91,169.81,492,167.43,501.79,164.89Zm-1.51,387.28c0-7.54-.16-15.08.08-22.62.08-5.15-1.9-8.72-6.42-11.34q-45.33-26.07-90.48-52.29-112.77-65-225.21-130.2c-7.37-4.29-13.32-6-20,.08-1,.95-3.17,1-3,2.7.08,1.34,1.83,1.66,2.94,2.38q58,33.56,116.25,67.12,100.28,58,200.62,115.76c7.77,4.44,11.18,9.68,10.87,18.65-.56,14-.08,28-.16,42,0,2.62.47,3.49,3.09,1.9,2.93-1.82,5.87-3.57,8.88-5.15,2.06-1,2.7-2.62,2.62-4.84C500.2,568.27,500.28,560.18,500.28,552.17ZM149.7,368.8c0,7.62.16,15.32-.08,22.93-.15,5,1.83,8.18,6.11,10.56,24,13.72,47.74,27.53,71.69,41.26,1,.55,2.29,2.38,3.25.87a4.25,4.25,0,0,0-.48-4.84,9.88,9.88,0,0,0-2.54-1.83l-26.4-15.23q-23-13.22-45.92-26.5c-2.45-1.43-4.36-5.63-3.09-6.82,2.22-2.07,3.89.23,5.55,1.19,23.08,13.25,46.15,26.66,69.23,39.91,3.73,2.14,3.88,2.06,3.88-2,0-13.09-.07-26.1.08-39.19a5.46,5.46,0,0,0-3-5.4c-24.5-14-48.93-28.25-73.35-42.29-3.89-2.22-4.92-1.67-4.92,2.78ZM470.38,180.21c1.67-4.29-1.34-7.38-6.26-9.6-2.85-1.27-5.47-3.1-8.25-4.69Q374.63,119,293.31,72.06q-37.23-21.42-74.38-43c-2.62-1.51-3.41-1.27-3.65,1.9-1.11,20.71-2.46,41.34-3.65,62.05C210.68,109,210,124.9,209,140.85c-1.27,22.3-2.54,44.51-3.81,66.81-.63,11-1.27,21.9-1.9,32.77-.95,16.1-1.9,32.13-2.78,48.24-.08,1.43-.31,3,.95,4,.72.56,1.67,1.27,2.38,1.12,1.19-.16.8-1.51.8-2.38.87-15.79,1.66-31.66,2.53-47.45.56-9.92,1.11-19.76,1.67-29.68q1.9-31.17,3.73-62.44c.95-16.11,1.66-32.13,2.61-48.24,1.19-20.71,2.54-41.34,3.73-62,.32-6,.95-6.42,6.11-3.41Q266.31,62,307.66,86,384.51,130.34,461,174.49c3,1.75,4.36,3.65,4.12,7.22-.71,9.45-1.11,19-1.66,28.49-.88,15.55-1.67,31.1-2.54,46.65-1.19,21.34-2.54,42.69-3.73,64q-1.31,23.92-2.62,47.85-1.78,31.77-3.72,63.63a21,21,0,0,0,0,3.17,3.64,3.64,0,0,0,3.57,3.18c1.74.08,1.34-1.91,1.42-3.1.64-11.42,1.19-22.93,1.75-34.35.79-14.92,1.66-29.76,2.53-44.67,1.19-20.95,2.54-41.9,3.73-62.84.95-15.95,1.67-31.9,2.62-47.85C467.69,224.4,469,203.06,470.38,180.21Zm67.25,405.44c1.59-.87,3-1.75,4.52-2.54q33.3-19.15,66.53-38.32,50.91-29.28,101.9-58.56c2.61-1.51,3.8-3.17,3.65-6.27-.24-4.6-.08-9.2-.08-13.88,0-5.32,0-5.32-4.76-2.62-11.66,6.74-23.32,13.49-35,20.15Q610.66,520.39,546.75,557a5.91,5.91,0,0,0-3.41,6c.16,4.36-.08,8.72.08,13.09a5.48,5.48,0,0,1-3.33,5.71C538.9,582.55,537,583,537.63,585.65ZM671,480.84a17.64,17.64,0,0,0,1.9-.72c14-8.09,28.15-16.18,42.19-24.28a4.48,4.48,0,0,0,2.3-4.6V433.79c0-2.07,1-5.16-.48-6-1.82-1.11-4,1.35-5.79,2.38q-72.07,41.42-144,83c-20.46,11.82-40.92,23.56-61.38,35.39-1.58,1-3.33,1.66-3.33,4v23c0,2,.71,2.38,2.38,1.43,2.54-1.43,5.07-2.85,7.53-4.28,4.13-2.38,4.21-3.81.08-5.8-3.8-1.82-5.31-4.44-4.83-8.48.15-1.67.07-3.42.07-5.16a5.2,5.2,0,0,1,2.86-4.84c4.28-2.38,8.48-4.84,12.69-7.3,1.58-.87,3.09-1.27,4.83-.32,4.44,2.62,8.89,5.16,13.41,7.7a3.3,3.3,0,0,1,1.9,2.85c.08,3.18,1.51,2.62,3.41,1.43,7.85-4.6,15.86-9,23.63-13.65,10.31-6.26,8.4-2.61,8.48-14.51,0-3.42,1.35-5.24,4.21-6.83,9.83-5.47,19.42-11.19,29.18-16.74,18.08-10.39,36.08-20.87,54.16-31.26,4-2.3,4.52-1.91,4.6,2.38ZM436.6,727.91l-1-.24c1.59-7.38,3-14.83,4.76-22.21.56-2.3.24-3.57-1.9-4.76-9.2-5.16-18.32-10.48-27.44-15.79-1.67-.95-2.93-1.27-4.68-.32-9.36,5.16-18.87,10.08-28.23,15.23-3.41,1.83-3.33,2.94-.08,4.84,16.42,9.52,32.91,19.05,49.33,28.57a12.2,12.2,0,0,0,13.08.16c12.29-6.75,24.66-13.18,37-19.76q22.37-11.89,44.65-24c3.64-2,3.64-2.94.23-5-4-2.46-8.16-4.84-12.29-7.14-2.53-1.43-5.63-4.44-5.79,1.82,0,.8-1.5.56-1.11,1.59,6.19,1.51,12.22,3,18.32,4.52a3.29,3.29,0,0,1-2.69.64c-6.51-1.27-12.93-2.46-19.43-3.81a14.18,14.18,0,0,0-8.88.79c-12.93,5.56-25.85,11.43-39,16.43-6.26,2.38-9.59,5.63-10.54,12.29C440.09,717.12,438.11,722.44,436.6,727.91ZM589.25,618.58c7.46-4.29,14.2-7.78,20.62-11.9,14.59-9.29,30.29-12.54,47.26-10.24,10.63,1.43,20.62,4.68,28.71,12.06,9.75,8.81,9.91,21.11.47,30.23-4,3.89-9,6.51-14,8.73-13.09,5.55-26.88,6.9-40.76,5.55-17.84-1.74-34.66-6.35-45.6-22.45-.55-.8-1.11-1.59-2.22-1a1.94,1.94,0,0,0-1.11,2.61c1.67,4.37,3.41,8.81,7.38,11.43,17.92,11.74,37.35,18.72,59.07,19,18.88.24,37.11-2.3,53.93-11.58,7-3.89,13.24-8.73,17.28-15.87,5.32-9.28,4.36-17.61-2.93-25.31a59.34,59.34,0,0,0-20.7-13.65c-19.51-8.09-39.89-9.6-60.58-6.82a88,88,0,0,0-33.23,11C596.31,604.29,590.76,609.13,589.25,618.58ZM483.07,561.53c0-7.78-.08-15.55.08-23.41a10.73,10.73,0,0,0-5.95-10.31Q433.07,502.46,389.1,477c-2.69-1.51-3.49-1.35-3.49,1.9.08,12.78.16,25.63,0,38.41-.07,3.49,1.11,5.47,4.21,7.22,27.67,15.86,55.35,31.89,82.94,47.84a66.58,66.58,0,0,1,6.43,3.89,4,4,0,0,1,.87,5.95c-1.51,2.06-2.62-.24-3.89-.95-.47-.24-.87-.56-1.35-.8l-85.4-49.27c-1-.55-2.3-2.14-3.33-.55a4,4,0,0,0,.32,4.52A8.67,8.67,0,0,0,389,537l89.44,51.65c3.73,2.15,4.68,1.67,4.68-2.61C483.15,577.87,483.07,569.7,483.07,561.53Zm156.77,84.9a82,82,0,0,0,8.73-.08c11.65-1.19,22.91-4,32.27-11.51,7.3-6,7.69-14.28,1.11-20.94a22.5,22.5,0,0,0-6.34-4.69c-18-9-36.4-9.36-54.48-1-9.52,4.37-18.32,10.4-27.52,15.55-2.53,1.43-2.53,2.86-1,5a35.55,35.55,0,0,0,11.66,9.84C615.5,644.52,627.39,646.74,639.84,646.43ZM398.78,436.09c.32-6,.39-11.35,1-16.59.47-4.28-1.11-6.58-4.84-8.72-20.06-11.35-40-23-60-34.52l-59.63-34.43c-2.54-1.51-3.65-1.51-3.65,1.9-.08,4.84-.31,9.76-.87,14.6-.32,3,.79,4.44,3.25,5.87Q321.5,391.46,369,419C378.72,424.5,388.39,430.06,398.78,436.09Zm-80.33,241.6c-.24-3.65-.4-6.27-3.89-8.25Q161.48,580.53,8.47,491.63c-1.19-.72-2.3-1.83-4.12-1.67-.08,3.18.55,5.56,3.73,7.46q143.81,83.31,287.53,167C303.14,668.8,310.6,673.09,318.45,677.69ZM269.13,346.91h-.24c.16-1.83.16-3.73.47-5.48.4-2-.23-3.17-2-4.2q-34.5-19.75-68.83-39.68c-2.14-1.19-3-1-3.09,1.51-.24,5-.4,10-1,15-.32,2.77.31,4.28,2.77,5.71,13.32,7.54,26.49,15.23,39.73,22.93,9.28,5.32,18.48,10.63,27.68,16.11,2.61,1.58,3.64,1.35,3.72-1.91S268.89,350.16,269.13,346.91Zm50.35,337.6c-.08-3.57-2.22-4.84-4.44-6.11q-64.71-37.6-129.41-75.22Q97.37,551.9,9,500.59c-.95-.55-2.14-2.06-3-.79a3.11,3.11,0,0,0,.8,4.28,53.55,53.55,0,0,0,5.07,3.1q145,84.26,289.92,168.6c5,2.94,10,5.87,15.06,8.73C317.81,685.07,319.08,686.34,319.48,684.51Zm154.63-14.44c-1.66-1.82-3.41-.79-4.68,0-7.05,4.6-13.48,3.65-19.74-1.51a13.51,13.51,0,0,0-1.35-.79,3.91,3.91,0,0,0-4-.4c-9.92,4.29-19.83,8.49-29.82,12.78-1,.39-2.3.79-2.38,1.9s1.35,1.51,2.22,2c8,4.61,16,9.13,23.95,13.89a10.33,10.33,0,0,0,10.15.48c8.17-3.65,16.41-7.07,24.66-10.64,1.74-.79,3.81-1.11,5.55-3-3.17-1.83-6.18-3.65-9.28-5.32-1.42-.79-2.3-1.66-2.06-3.33s.64-3,2.3-3.81C471,671.5,472.84,671.5,474.11,670.07Zm107.45-138c2.06-.16,3.33-1.27,4.6-2,25.3-14.52,50.43-29.28,75.89-43.48,5.31-2.94,7-6.35,6.34-11.9-.24-2.22-.79-2.86-2.85-1.67-3.65,2.14-7.3,4.21-10.95,6.35-23.15,13.41-46.39,26.74-69.54,40.23-1.51.87-3.49,1.5-3.49,3.88C581.64,526.3,581.56,529.16,581.56,532.09Zm-260,145.36c1.19-.71,2.22-1.35,3.25-2q51.39-33.81,102.77-67.68c6-4,12.06-8.1,18.24-11.91,3.09-1.9,2.7-4.76,1.35-6.82s-2.93.56-4,1.27c-39.49,25.95-78.83,52-118.4,77.84C320.91,670.55,319.48,673,321.54,677.45Zm61-144.17c1.43-4.36-.16-6.5-3.41-8.17-3.57-1.75-6.9-3.89-10.31-5.87q-65.42-37.73-130.92-75.46c-1.11-.63-2.69-2.85-3.8-.63a3.83,3.83,0,0,0,1.42,5.24c.72.39,1.35.79,2.07,1.19q57.57,33.19,115.14,66.49C362.46,521.78,372.37,527.49,382.52,533.28ZM449,600.33c-.23-.88-.15-2.22-.71-2.54-1.43-.72-2.38.71-3.41,1.43L325.43,677.77a19.19,19.19,0,0,0-2.62,1.82,3.75,3.75,0,0,0-.63,5.08c1.19,2,2.53.08,3.56-.56q18.45-12,36.72-24.2,41.51-27.36,83-54.66C447.23,604.06,449.29,603,449,600.33Zm136.71,19.75c1.35-.63,1.27-1.66,1.35-2.53,1-7.94,5.71-13.41,12.13-17.7a69.44,69.44,0,0,1,16.34-8,118.91,118.91,0,0,1,63.2-3.73c13.64,2.78,26.33,7.7,37.11,16.82,15.07,12.69,15.78,30.23,1.83,44a56.19,56.19,0,0,1-18.16,11.83c-28.39,11.58-57.1,11.9-85.72,1.5-14.68-5.31-27-13.8-33.31-29.11-.24-.48-.48-1-1.43-.72-.63,2.78,1,4.92,2.3,7,6.66,11.43,17,18.73,28.95,23.57C636,673.4,662.44,674.12,689,666.66c12.45-3.49,23.87-9.21,32.67-19.2,9.91-11.19,10.47-25.87,1.35-37.69-6.5-8.41-15.23-13.73-24.9-17.69-16.34-6.75-33.47-9.13-51.07-8.1-13.72.72-27,3.41-39.49,9-7.53,3.41-14.51,7.61-19.11,14.84C586.08,611.59,584.73,615.48,585.68,620.08Zm72.09-245.64c-1.59-.64-2.46.47-3.34.95q-70,40.47-140.11,81.09a48.25,48.25,0,0,1-18.4,6.5c-8.33,1.12-16.65,2.78-25,3.89-3.17.4-3.25,1.75-2.46,4.21.95,2.7,2,5.47,2.7,8.25.79,3.33,2,3.41,4.83,1.75q52.35-30.48,104.84-60.62,36.15-20.83,72.32-41.82C654.83,377.53,657.37,377.14,657.77,374.44ZM587.51,627.07a11.3,11.3,0,0,0,3.41,6.26c5.39,6.11,12.21,10,19.74,12.78a87.7,87.7,0,0,0,42.9,4c9.6-1.43,18.88-4.21,27-9.68,13.8-9.29,14.36-24,.4-32.77-20.06-12.7-42.11-13.65-62.64-2.62C584.1,623.42,550.87,643.57,517.33,663c-.64.4-2,.55-1.35,2.14,1.51.32,2.62-.71,3.81-1.43,31.24-18,62.56-35.78,93.57-54.11,15.14-9,31.08-11.19,48-8,9,1.66,17.37,4.92,23.56,12.06,5.86,6.74,5.55,14.52-.48,21-4,4.29-8.88,7-14.27,9.05a81.72,81.72,0,0,1-43.54,4.52c-14.75-2.46-28.55-7-37.43-20.31C589,627.62,588.54,627.54,587.51,627.07Zm73-459.32c-6.58-5-12.92-7.3-20.7-7.14-18.47.47-37,.16-55.43.08-5.94,0-11.89-.24-17.76-.4-2.38-.08-3.17.87-3.41,3.25-.31,3.42,1.19,4.29,4.36,4.29,16.5-.08,33,0,49.49,0C631.28,167.75,645.55,167.75,660.54,167.75ZM449.45,465.37c.32-7.07.63-13.33.95-19.68a3.53,3.53,0,0,0-1.74-3.65c-7.77-4.52-15.55-9-23.24-13.49-1.35-.79-2.22-.71-2.3,1.11-.24,5.79-.55,11.58-.87,17.38a4,4,0,0,0,2.14,3.88C432.56,455.61,440.65,460.29,449.45,465.37ZM401.55,429c0,1.34.32,2.69-.08,4-1,3.73.8,5.48,3.81,7,3.89,2,7.61,4.2,11.26,6.5,2.3,1.43,3.25.95,3.41-1.66.32-5.48.64-11,.95-16.51a3.25,3.25,0,0,0-1.74-3.25c-4.76-2.78-9.6-5.48-14.36-8.33-1.58-1-2.29-.64-2.53,1.27C402,421.65,401.55,425.3,401.55,429Zm16-401.72c-4.76-3.17-8.48-5.39-13.64-5.23-16.49.23-33,0-49.48-.08H343.19c4.28,2.14,7.14,4.84,11.5,5,16.49.56,33,.16,49.4.32C408.21,27.39,412.42,27.31,417.57,27.31ZM710.5,595.09a34.65,34.65,0,0,0-3.25-2.06c-2.7-1.43-5.32-2.94-8-4.21-17.53-8.09-36.16-10.31-55.19-9.28-15.7.87-30.77,4.36-44.57,12.3-11.34,6.58-20.38,15.07-22.36,29-.16,1.43-.87,2.93.4,4.28,1.42-.71,1.11-1.9,1.26-2.93,1.11-9.13,5.56-16.35,12.45-22.22a58.88,58.88,0,0,1,17.21-10.39C643.1,576.21,676.8,578.83,710.5,595.09ZM539.29,553.28c-4,2.3-7.45,4.36-10.94,6.34a2.92,2.92,0,0,0-1.58,2.54v23c3.72-2.14,7-4,10.3-5.95,1.35-.79,2.3-1.74,2.3-3.41C539.29,568.59,539.29,561.29,539.29,553.28Zm61.54,99.65a46.5,46.5,0,0,0,9.59,5.56c20.23,8.72,41.24,10.39,62.81,7.3,15.07-2.15,29.26-6.91,41.15-17a30.71,30.71,0,0,0,11.11-19.6c-3.89,10-9.12,16.5-18,21.82-22.13,13.33-46.31,16-71.37,12.77A98.81,98.81,0,0,1,600.83,652.93Zm-62.57-101.8a69,69,0,0,1-7.69-4.6c-3.25-2.54-6-2.14-9.43,0-8.17,5.16-8.33,5,.07,9.84,1.51.87,3.1,2.62,5,1.67C530.1,556,533.82,553.67,538.26,551.13Zm-26,2.78c-1.27,5.32-.71,9.13,4.52,11.11,2.22.87,3,2.7,2.94,5.08-.08,3.65,0,7.38.08,11a3.12,3.12,0,0,0,3.17,3.33c2.06,0,1-2.06,1.11-3.1.08-5.79,0-11.58.08-17.37,0-1.75-.16-3.33-2-4.37C518.91,557.88,515.74,556,512.25,553.91ZM471.57,674c4.52,2.06,7.46,6,11.34,5.31,5.71-1,11.11-3.41,17.37-5.47-2.54-1.51-4.12-2.54-5.87-3.49-2.06-1.11-4-2.78-6.58-1.83C482.75,670.31,477.68,672,471.57,674Zm6.82-12.78c-4.28-2.38-7.29-6-11-5.39-5.71.87-11.1,3.33-16.65,5.08v1.11c3.8,1.19,6.5,5.55,10.86,4.6C466.9,665.55,472.05,663.33,478.39,661.26Zm46.39,30.39c-1.27-.71-1.9.24-2.61.64q-38.79,20.58-77.48,41.33c-5,2.7-9.75,5.4-15.78,3.26,3.81,2.93,7.53,2.69,11.5.55q40-21.42,79.93-42.68C521.85,694,523.67,693.32,524.78,691.65Zm118.32-534c-26.33-1.58-52.74-1.43-79.14-1.35v1.35Zm-6.27-3.81c-4.28-2.06-69.7-2.06-72.56,0ZM629.54,150v-1H563.48C565.46,150.45,612.41,151.4,629.54,150ZM356.67,29.61c3.33,1.83,59.55,2.62,67,1.27C420.59,29.14,383.55,28.42,356.67,29.61ZM460,51.67c-3.57-1.82-61.3-2.46-67.17-1.11C396.24,52.23,439.22,52.94,460,51.67Zm6.42,3.89c-2.78-1.83-54.08-2.78-66.37-1.27C402.66,56.11,452.78,57.07,466.42,55.56Zm84.77,49.19v-1H485.13C487.83,105.31,537.39,106.1,551.19,104.75Zm42.74,24.12c-22.12-1.59-44.25-.87-66.45-.24C549.6,129.66,571.81,129.51,593.93,128.87ZM519.87,124c3.49,1.83,59.63,2.62,67.32,1.11-1-.47-1.59-1-2.3-1C563.4,124,541.91,124,519.87,124Zm-11.34-43.8v-1H442.79C445.25,80.63,498.14,81.5,508.53,80.15ZM449.61,83c2.46,1.59,60.11,2.3,66,.87C512.73,82.46,456.82,81.66,449.61,83Zm28.7,16.58c3.49,1.51,59.48,2.3,65.82.88C541.59,99,485.85,98.24,478.31,99.59Zm23.16-23.4c-2.54-1.75-60.35-2.38-65.82-.72C457.54,77.06,479.5,76.11,501.47,76.19ZM363.25,33.42c3.81,2,62.33,2.7,67.41,1C408.61,33.1,386.49,33.5,363.25,33.42Zm195.08,75.06c-22.13-1.59-44.33-1.27-66.46-.48C514,109.11,536.12,109,558.33,108.48ZM472.76,59.21c-22-1.51-43.85-1-66.37-1.19C409.56,60.08,460.08,61,472.76,59.21Zm61.7,72.52c2.3,2.06,57.49,3.09,65.89,1.11C578.47,131.57,556.58,131.73,534.46,131.73Zm45.91-10.16c-3-2-59.47-2.85-66.37-.95C536,121.1,557.93,122,580.37,121.57Zm-67,466a17.26,17.26,0,0,0-.08,2.78c.32,2.78-1.26,7.22.8,8.09,2.54,1,5.47-2.3,8.09-3.88,2.77-1.75,2.77-4.21-.16-5.72-4.52-2.22-7.54-5.08-6.51-10.63.16-.71.08-1.82-1-1.82s-1.11,1-1.11,1.74C513.36,581.21,513.36,584.38,513.36,587.55ZM449.29,470.28c7.14,4.13,13.16,7.54,20.14,11.51-1.5-4.76-2.69-8.33-3.8-11.9a2.29,2.29,0,0,0-2.94-1.83C458.65,468.94,454.52,469.49,449.29,470.28Zm115.3,162.18c-.4-1.51-1.82-1.82-2.85-2.46-7.54-4.36-15-8.81-22.6-13-5.56-3-8.25-7.46-8-13.81.08-1.34.63-3.09-1-4.28-2.54,7.38-.08,14.84,6.26,18.65,8.17,4.84,16.41,9.52,24.58,14.2C562.05,632.38,563.16,633.49,564.59,632.46Zm.16-520.57H499.41C501.55,113.24,556.11,114.11,564.75,111.89Zm-8.09,33.25c22,.71,43.93.39,66.85,1.27C619.62,144.1,568.24,143.15,556.66,145.14Zm-85.4-49.43v.55h66v-.55ZM428.51,71.19c22.13,1,44.33.47,66.46,1.35V71.19Zm23.87-24.12c-22-1.11-43.93-1-65.89-.48C408.37,47.7,430.42,47.07,452.38,47.07Zm89.21,89.34a5.29,5.29,0,0,0-.15,1.11c22,.16,44,.08,66,.08v-1.19Zm-104.43-97V38.18h-65.9v1C393.23,39.37,415.19,39.29,437.16,39.37ZM414,62.7c0,.16-.08.4-.08.55h65.9V62.7Zm42.82,24.67c-.07.32-.07.72-.15,1,22,.23,43.93.08,66,.16v-1.2ZM507,116.1c0,.16-.08.39-.08.55h64.95v-.55Zm107.45,25.15c0-.16.08-.4.08-.56H549.6v.56Zm-235-98.86c0,.16-.08.39-.08.55H444.3v-.55Zm84.69,49.19v.48h64.94v-.48ZM422.17,66.83c0,.23-.08.47-.08.71h64.39v-.71Zm88.5,522.23v-8.25c0-.71.24-1.75-.8-2a1.67,1.67,0,0,0-1.9,1.58,101.45,101.45,0,0,0,.08,16.9,1.58,1.58,0,0,0,1.67,1.43c1.11-.08.95-1,.95-1.82Z"/><path d="M225.43,282.64c1.59-26.82,3.1-53.08,4.6-79.27.87-16.1,1.67-32.13,2.54-48.24,1.51-26.5,3-52.92,4.6-79.42.08-1,0-2.14.08-3.17.08-1.35-1.19-2.94.55-4,1.51-.79,2.78.4,4,1q35.8,20.72,71.68,41.42,63.65,36.78,127.28,73.39c3.49,2,4.6,4.21,4.28,8.25-.95,10.4-1.35,20.79-2,31.18-1.27,23.17-2.62,46.34-3.89,69.59-.87,15.79-1.66,31.66-2.54,47.45-1.11,20.55-2.14,41.1-3.33,61.65-.24,4.28-1.19,4.52-5,2.3-15.94-9.37-32-18.57-48-27.77q-75.06-43.32-150.19-86.73C226.7,288.43,224.24,286.37,225.43,282.64ZM441,194.73c1-3.73-1-6.35-5.15-8.73q-68.87-39.51-137.58-79.35c-12.77-7.37-25.61-14.75-38.38-22.21-2.3-1.35-3.17-1.11-3.49,1.59-.56,4.68-1.35,9.36-2,14.12-2.3,18.33-4.13,36.73-5.87,55.06-1.59,17-3.17,33.88-3.49,50.94-.4,21.42-.48,42.77.32,64.19.23,6.11,1.5,10.71,6.9,13.81.23.15.39.31.63.47a659.94,659.94,0,0,0,138,83.39c11.81,5.32,23.71,10.32,35.92,14.6,2.7.95,3.89.56,3.89-2.62,0-2.78.47-5.55.63-8.25,1.43-26.74,2.78-53.48,4.2-80.3.56-10.31,1.11-20.54,1.75-30.86C438.43,238.92,439.62,217.34,441,194.73ZM228.13,278.67c0,3.89-1.11,7.38,4,10.24,52.18,29.75,104,59.9,156.06,90q18.68,10.83,37.35,21.58c3.49,2,4.05,1.67,4.2-2.22.16-2.38,0-4.76.24-7.14.24-2.54-.63-4-3.09-4.68-2.93-.87-5.79-1.91-8.56-3a645.7,645.7,0,0,1-115.54-58.87,581.18,581.18,0,0,1-56.62-40.62c-2.38-2-4-4-4.28-7.46-1.11-13.57-.8-27.22-.95-40.78-.4-30.63,1.66-61.18,4.91-91.64,2-18.73,3.73-37.53,6.5-56.18,1-7.14,1-7.14-5.39-10.87-1.5-.87-3-1.67-4.44-2.62-2-1.27-2.93-1.27-3.09,1.51q-1.9,37-4,73.87c-.87,16.1-1.66,32.13-2.61,48.24C231.22,225,229.64,251.77,228.13,278.67Z"/><path d="M337.24,565.81c3.33,5.87.08,7.78-3.33,9.92-11.65,7.46-23.15,15-34.73,22.53-1.74,1.12-3.17,2-2.38,4.69.95,3,2,4.12,4.76,1.74a5.48,5.48,0,0,1,3.65-1.19,2.49,2.49,0,0,0,2.45-1,21.54,21.54,0,0,1,15.07-9.6,2,2,0,0,0,1.27-.79,20.85,20.85,0,0,1,14.91-9.76c.71-.16,1-.72,1.35-1.27,2.53-4.37,6.9-6.75,11.26-8.26,5.23-1.74,9.12,2.46,12.76,5.56a8.83,8.83,0,0,0,3.81,2.22c4.2,1.11,8.17,3,10.94,6.59a3,3,0,0,0,2.06,1.5c7.93,1.27,13.09,5.48,14.83,13.65.48,2.22.24,3.89-1.74,5.08-9.36,5.87-18.72,11.82-28,17.69-1.91,1.19-3.57,2.7-5.47,3.81-9.44,5.71-18.16,12.3-27.68,17.69a128,128,0,0,0-11.66,8.1c-3,2.22-6,2.14-9.27.31-11.5-6.66-23-13.4-34.58-19.91-2.93-1.67-3.65-3.65-2.85-6.82,1.19-4.61,2.14-9.13,7.37-10.72-.16-.47-.24-.79-.4-.87-5.47-3.89-9.91-1.27-14.27,2.22-1.43,1.11-3.09,2.07-4.6,3a6.45,6.45,0,0,1-6.74.32,12.93,12.93,0,0,1-2.06-1.12c-2.85-2.93-9.83-2.3-8.09-9.36,1.11-4.36,1.43-9,7.06-11-4.6-2.54-8.57-4.76-12.45-7.06-1.35-.79-2.46-.39-3.65.4-3.09,2.06-6.18,4-9.28,6.11s-6,2.3-9.19.24c-10.87-6.91-22.13-13.25-33.31-19.52-13.8-7.7-27.52-15.71-41.24-23.49-20.22-11.5-40.28-23.25-60.34-34.83-12.61-7.3-25.22-14.68-37.91-21.74-3.72-2.06-4.75-4.36-3.41-8.33,1.11-3.17,1.19-6.82,4.84-8.65,1.11-.55,1.11-1.35,0-2.06a7.87,7.87,0,0,1-1.35-.8c-2.38-2-7.29-2.22-6.82-6.18.56-4.92,1-10.4,6.67-13,3.09-1.42,5.39-4.28,9.19-4.28a2.27,2.27,0,0,0,1.59-.95,21.72,21.72,0,0,1,14.35-9.37,2.07,2.07,0,0,0,1.59-.95c3.25-5.39,8.32-8.17,14.19-9.68.48-.16,1.27-.31,1.35-.63,1.43-4.29,5.71-5.24,8.8-7.62,2.54-2,5.24-3,8.33-1,1.74,1.11,2.46,0,2.62-1.59.71-7.38,7.13-9.2,12.13-12.37a4.71,4.71,0,0,1,4.6,0c4.52,2.38,9.43,4.28,10.47,10.31.47,2.7,1.9,3.65,4.44,1.75a3.82,3.82,0,0,1,3.72-.8c5.4,2.46,11,4.68,14.83,9.44.56.72.87,1.51,2,1.67a26.87,26.87,0,0,1,17.77,10.31c.31.4.79.88,1.19.88,6.18-.48,9.91,4.36,14.9,6.58a5.15,5.15,0,0,1,2.62,2.86c.4.79.64,1.59,1.9,1.74,7.38.88,13.17,4.45,17.77,10.24a2,2,0,0,0,1.27.79c6.26-.39,10.23,4.45,15.22,6.91,2.86,1.42,3.09,4.76,4,7.45.71,1.91,1.42,2.7,3.33,1.27,2.69-2.06,5.47-1.82,8.08.08,4.05,2.94,9.68,3.89,12.06,9.05a1.19,1.19,0,0,0,.95.55c5.87-.47,9.83,3.57,14.11,6.35a80.26,80.26,0,0,0,10.47,6.11c4.68,2.06,10.31,3.89,12.77,9.36a1,1,0,0,0,1,.56c6.11-.79,10.15,3.49,14.43,6.43,3.33,2.22,6.19,4.6,10.23,5.79,3.57,1,6.66,3.73,10,5.63,2.7,1.59,2.78,4.68,3.89,7.14.71,1.51,1.11,2.86,3.41,1.75,4.44-2.15,12.69.71,15,5.08a53,53,0,0,1,2.93,7.77c.63,1.9-.16,3.33-1.82,4.36-3.41,2.23-6.9,4.45-10.31,6.67C343.82,569.3,341.05,568.11,337.24,565.81Zm-151.85,1.35c2.69-.55,5.07-3.09,7.93-4.68,2-1.11,1.66-2-.16-2.93-.95-.48-1.83-1.12-2.7-1.59-29.34-17-58.84-33.72-88-51-5.63-3.33-10-4.05-14.75.56a5.16,5.16,0,0,1-.63.47c-2.7,1.35-2.46,2.38.08,3.89l93.25,53.79A9.06,9.06,0,0,0,185.39,567.16Zm2.69,1.59c-3.72,2.22-6.66.16-9.59-1.51q-45.56-26.29-91.19-52.6c-1.19-.64-2.54-2.54-3.73-1.35-1,1-1.35,3.17-1.35,4.84,0,2.06,2.22,2.46,3.57,3.25,30.21,17.54,60.5,34.91,90.8,52.45C186.1,579.22,185.39,579.46,188.08,568.75Zm114.43-4.36c-.16-.88-.95-1.2-1.59-1.51-2.61-1.51-5.31-2.94-7.85-4.53a4.88,4.88,0,0,0-5.86.16c-2.7,1.83-5.63,3.49-8.25,5.4-3.25,2.38-6.5,2.78-9.75.16-3.73-3-7.3-3-10.87.24a15.14,15.14,0,0,1-3,1.9c-1.91,1-2.3,2-.08,3.25,6.42,3.65,12.84,7.38,19.19,11a4.19,4.19,0,0,0,4.76-.08c7.29-4.76,14.59-9.52,21.8-14.28C301.56,565.65,302.35,565.34,302.51,564.39ZM54.23,459.89c-3.09.71-5.24,2.86-7.69,4.28-2.78,1.51-3.18,2.7,0,4.45,7.05,3.89,14.19,7.61,20.77,12.14,5.63,3.89,10.23,4,15.47-.48,2.29-2,2.61-2.7-.16-4.28-8.57-4.84-17.05-9.92-25.62-14.84A26.06,26.06,0,0,0,54.23,459.89Zm50.19,1.75c2.14-.4,4.13-2.31,6.35-3.65,4-2.46,4-2.54.08-4.84-5.87-3.5-12.14-6.51-17.69-10.48s-10.23-3.81-15.06.72a4.43,4.43,0,0,1-.64.47c-2.3,1.35-1.82,2.3.24,3.49,7.69,4.37,15.23,8.89,22.84,13.33A6.71,6.71,0,0,0,104.42,461.64Zm130,103.54c-2.38.4-4.52,2.78-7.13,4.2s-2,2.62.16,3.81c5.86,3.33,12,6.19,17.36,10.16,5.87,4.28,10.55,3.57,15.78-.72,2.3-1.9,2.3-2.54-.16-3.88-7.21-4-14.35-8.26-21.57-12.38A6.87,6.87,0,0,0,234.39,565.18Zm98.33-2.86c-.39-1.11-1.42-1.51-2.38-2-5-2.86-10.38-5.32-15-8.73-5.55-4.13-10.39-4.2-15.31.56a3.08,3.08,0,0,1-.63.39c-2.38,1.27-1.91,2.3.16,3.49,6.66,3.73,13.16,7.62,19.82,11.35,3,1.67,11.58-1.19,13-4.36A3.2,3.2,0,0,0,332.72,562.32Zm-15.06,62.76c3.56-.47,5.86-3.09,8.72-4.68,2-1.11,1.9-2.14-.08-3.33-4.52-2.46-9.28-4.6-13.32-7.78-5.79-4.52-10.55-3.65-15.7.8-2,1.66-2.46,2.38.08,3.73,5.94,3.33,11.89,6.82,17.84,10.23A8,8,0,0,0,317.66,625.08Zm-14.83-.39c-2.38.55-4.84,2.93-7.62,4.6-1.9,1.11-1.66,2,.16,3,4.6,2.62,9.52,4.76,13.56,8,5.87,4.6,10.55,3.25,15.63-1,2.29-1.9,1.82-2.61-.32-3.8-5.63-3.18-11.18-6.43-16.73-9.6A7.45,7.45,0,0,0,302.83,624.69ZM330,645.08c-.64-1.59-.87-3.49-2-4.37-1.34-1.11-2.37,1-3.64,1.51A15,15,0,0,0,321.7,644c-3.49,2.77-6.82,2.61-10.55.23-4.75-3-9.75-5.79-14.75-8.49-1.19-.63-2.85-3.17-4.2-.63-1.19,2.14-2.38,4.76,1.27,6.59,4.36,2.14,8.49,4.76,12.69,7.29,11.18,6.59,11.18,6.59,21.73-1.19a6.94,6.94,0,0,0,1.26-.95A16.83,16.83,0,0,0,330,645.08ZM101.57,428.79c-3.49.63-5.79,3.09-8.64,4.76-1.83,1-1.75,2.06.07,3.09,4,2.3,7.93,4.68,12,7a4.2,4.2,0,0,0,4.52,0c2.14-1.26,4.2-2.69,6.34-4,1.75-1.11,1.75-2.06-.08-3.1-4-2.3-7.93-4.68-12-6.9A9.09,9.09,0,0,0,101.57,428.79ZM222.1,599.53a5.3,5.3,0,0,0,3.81-1c2.77-1.82,5.47-3.73,8.32-5.31,3.49-2,1.43-4.53.32-6.43-1.35-2.3-2.93,0-3.73.79-5.39,4.92-10.78,4.84-16.33.4a23.43,23.43,0,0,0-2.38-1.43c-3.73-2.06-4.12-1.82-4.84,2.38a2.69,2.69,0,0,0,1.43,3.26c3.89,2.22,7.77,4.52,11.66,6.74A7.73,7.73,0,0,0,222.1,599.53Zm12.53-113.77c-.4-1-.71-2.78-1.74-3.65s-2.46.55-3.33,1.35c-5.48,5-10.95,5-16.5.23-.55-.47-1.43-.71-2.06-1.19-2.78-2.22-4-1.35-4.6,1.91-.4,2.14.08,3.33,2.14,3.81,1.67.39,3.49.79,4.68,2,6.74,7.14,12.85,4.68,19-.79.48-.4,1.11-.72,1.67-1.11S234.87,487.18,234.63,485.76Zm89.53,68a18,18,0,0,0,2.54-1.11c2.53-1.58,5-3.41,7.61-4.92,3.09-1.82,1.66-4.12.63-6.11-1.42-2.85-2.77.08-4,.56a15.1,15.1,0,0,0-3.33,2.14c-3.09,2.46-6.19,2.46-9.44.24-2.22-1.43-4.52-2.62-6.74-4-1.58-1-2.62-1-3.17,1.11s-1,3.65,2,4.76c3.73,1.43,7.14,3.89,10.71,5.88C321.94,552.72,323.05,553.2,324.16,553.75Zm-91.43,28.57a7.76,7.76,0,0,0-.87-.48c-3.57-2-7.06-4.13-10.63-6-1.35-.71-2.78-.24-4.12.56-1.83,1.26-3.73,2.53-5.63,3.64-2.07,1.27-2.38,2.23,0,3.5s4.75,2.69,7.21,4c3.25,1.83,12.06-.87,13.64-4.2C232.57,583.19,232.57,583,232.73,582.32ZM88.56,499.56a9.8,9.8,0,0,1-.71-.87c-6.42-6.43-12.93-7-20.3-1.75-.08.08-.24.16-.32.24-2.22,1.19-1.74,2.14.24,3.18,2.46,1.26,4.76,2.69,7.22,4,3.49,2,12-.63,13.64-4.12A3.83,3.83,0,0,0,88.56,499.56Zm114.91,78.87a36.79,36.79,0,0,0,9.75-6c1.19-.87-.32-1.51-1-1.91-3-1.82-6.11-3.49-9.2-5.31a4.11,4.11,0,0,0-4.44-.08c-2.22,1.43-4.44,2.78-6.58,4.28-.71.48-1.9,1.35-.79,2.15A75.76,75.76,0,0,0,203.47,578.43ZM59.7,495.36a45.69,45.69,0,0,0,9.44-6c.87-.72-.16-1.43-.8-1.83-3.41-2-6.9-3.89-10.31-5.79a3.39,3.39,0,0,0-3.72.48c-2.06,1.34-4.21,2.69-6.27,4.12-.71.48-2.14,1.27-1,2A61.65,61.65,0,0,0,59.7,495.36ZM248.11,613.1c-.32,1.43.56,2.3,1.75,3.1,8.72,5.87,8.72,5.95,17.6.08a29.84,29.84,0,0,1,2.62-1.75c3.57-1.59,2.14-4.21,1-6.27-1.59-2.85-3.25-.16-4.36.64-4.44,3.17-8.57,5.47-13.88,1.42C249.62,607.79,248.35,608.66,248.11,613.1ZM161,438.15a44.34,44.34,0,0,0-9.51,6c-.95.72.31,1.35.95,1.75,3.17,1.9,6.34,3.73,9.51,5.55a3.59,3.59,0,0,0,4-.24c2.22-1.43,4.44-2.85,6.58-4.28.71-.48,2.06-1.19.71-2C169.53,442.36,165.8,439.58,161,438.15Zm19.19,11a40.74,40.74,0,0,0-9.51,5.95c-.95.71.16,1.35.79,1.75,3.17,1.9,6.34,3.72,9.6,5.47a3.89,3.89,0,0,0,4.12-.16c2.22-1.43,4.44-2.86,6.58-4.28.71-.48,1.9-1.27.71-2.07C188.64,453.46,184.91,450.69,180.23,449.18Zm101.82,58.63c-3.65,1.11-6.66,3.42-9.59,5.8-1,.79.15,1.58,1,2.06,2.85,1.66,5.63,3.33,8.48,5a4.42,4.42,0,0,0,4.21.23c2.61-1.42,5.15-3.17,7.69-4.76.71-.47,1.27-1.27.24-1.82C290.06,512.1,286.49,509.48,282.05,507.81Zm-62.88-36.26c-3.65.64-5.95,3.1-8.8,4.76-1.75,1-1.91,2,0,3.1,2.93,1.66,5.86,3.41,8.88,5.16a4,4,0,0,0,4.44-.16c2.14-1.35,4.2-2.7,6.26-4.13.72-.47,2.06-1.27,1-2.06A43,43,0,0,0,219.17,471.55Zm-76.84-44.43c-3.49.79-6,3.18-8.72,4.76-1.83,1-1.83,2,0,3.1,2.93,1.66,5.86,3.41,8.88,5.15a3.94,3.94,0,0,0,4.44-.15c2.14-1.35,4.2-2.7,6.26-4.13.72-.48,2-1.27.95-2.06A49.61,49.61,0,0,0,142.33,427.12Zm101.34,58.64c-3.57.79-5.95,3.17-8.72,4.84-2,1.11-1.43,2.14.24,3,2.85,1.59,5.71,3.25,8.48,4.92a4.31,4.31,0,0,0,4.84-.08c2.06-1.35,4.2-2.7,6.26-4.12.8-.48,1.83-1.35.8-2.15C251.68,489.8,248,487,243.67,485.76ZM199.9,460.45c-3.57.71-5.79,3.09-8.49,4.6-1.9,1.11-2.14,2.14,0,3.33,2.86,1.59,5.71,3.33,8.49,4.92a4.1,4.1,0,0,0,4.44-.08l6.66-4.28c.79-.48,1.82-1.35.63-2.07C207.83,464.57,204.18,461.72,199.9,460.45Zm122.83,83.23c3.81-.88,6.58-3.49,9.6-5.56.63-.47.31-1.11-.16-1.66a14.12,14.12,0,0,0-20.7-1.27c-.55.47-1.58,1.19-.71,1.82C314.48,539.63,318.29,542.25,322.73,543.68Zm-21.17-24.6c-3.73.56-6,3.17-8.88,4.68-2,1-1.67,2.06,0,3.1,2.93,1.74,5.87,3.49,8.8,5.15a3.68,3.68,0,0,0,4.12-.08l6.9-4.52c.64-.4,1.67-1.19.72-1.82C309.49,523.13,305.68,520.59,301.56,519.08Zm-39-22.37c-3.56,1.34-6.58,3.65-9.59,5.87-1.11.87.4,1.5,1.11,1.9,2.7,1.67,5.39,3.17,8.17,4.76a5.11,5.11,0,0,0,5.94-.08c2-1.27,4-2.54,5.95-3.89.72-.47,2.06-1.11.72-2C271,501,267.22,498.21,262.54,496.71Zm81.68,68.94c3.57-1,6.58-4.2,10.23-6.1,3.41-1.83,2-4.29.71-6.27-1.5-2.46-3.09-.08-4.12.79-4.84,3.89-9.59,5.32-14.83.87-.71-.63-1.82-1.5-2.77-.47a4.22,4.22,0,0,0-.8,3.73C333.28,561,340.57,565.81,344.22,565.65ZM133.37,427.52c-.16-3.81-2.14-5-5.08-2.7-5.07,4.05-10.07,5.55-15.54.87-.55-.47-1.51-1.19-2.14-.63a4.34,4.34,0,0,0-1.11,3.65c.16,2.06,10.86,8.33,12.85,7.54.15-.08.23-.08.31-.16,3.1-2,6.19-4,9.28-6A2.27,2.27,0,0,0,133.37,427.52ZM271.43,601.91a74.29,74.29,0,0,0,3,7.78c1.74,3.41,7.21,5.24,10.23,3.41s5.95-3.89,9-5.79c2.85-1.9.95-4,0-5.87-1.11-2.14-2.62-.4-3.49.39-5.23,4.45-10.47,5.8-16.18,1A10.18,10.18,0,0,0,271.43,601.91Zm-37.12-22c1.83,2.14,2.22,4.84,3.18,7.3a6.87,6.87,0,0,0,3,4c3.09,1.75,6.18,3.49,9.28,5.32,2.69,1.51,4.6,1.11,5-2.3.48-3.89,2.7-6.43,6.11-8.17a23.47,23.47,0,0,0,2.85-2.07,21.59,21.59,0,0,0-5.94,3.26c-3.49,2.69-6.82,2.69-10.55.23C243,584.62,238.6,582.32,234.31,579.86Zm-19.66-4.61c-11.34,6-11.34,6-22,.16-1-.55-2.69-2.93-3.72-.23-.72,1.9-2.46,4.44.79,6.18,3.73,2,7.29,4.21,10.94,6.27,2.7,1.59,4.6,1.11,5-2.22.47-3.89,2.61-6.43,6-8.17A27,27,0,0,0,214.65,575.25ZM82.22,507.89c-4.6.95-4.68.95-8.48-1.19-1.83-1-3.65-2.14-5.48-3.17-3.8-2.14-4.67-1.59-5.15,2.78-.24,1.74.79,2.38,1.9,3,2.14,1.27,4.36,2.54,6.5,3.73C80.48,518.21,79.6,518.21,82.22,507.89Zm194.28-.16a11.06,11.06,0,0,0-.32-1.58c-7.45,9-14.83,7-22.28,1-1-.79-2.54-1.59-3,.55-.32,1.75-2.46,4,1,5.24a30.34,30.34,0,0,1,10.7,6.51c2.54,2.54,4.6,2,5.16-1.51.71-4.21,3-6.82,6.58-8.73A9.91,9.91,0,0,0,276.5,507.73ZM315,529.87c-4.12.87-6.82,4.68-10.94,5-4.37.4-7.3-3.41-11-5-1.11-.48-2.3-2.3-3.41-.79-.95,1.35-1.9,3.33-.39,5.08,1,1.19,1.9,2.53,3.57,2.93a23.52,23.52,0,0,1,8.48,4.13c2.85,2,4.44,1.82,4.92-1.91a8.92,8.92,0,0,1,5.07-7.06A28.62,28.62,0,0,0,315,529.87Zm-140-80.77-.48-.71c-2,1.26-4,2.46-5.87,3.88-3.25,2.54-6.42,2.54-9.83.24-2.14-1.43-4.52-2.7-6.74-4.05-.79-.47-1.51-1.11-2.38-.07-2.06,2.22-1.19,6.18,1.75,7a29.65,29.65,0,0,1,10.7,5.71c2.46,2,3.57,1.35,4-1.35.63-4.52,3.17-7.3,7.05-9.28A13.4,13.4,0,0,0,175.08,449.1Zm19.11,11.27-.48-.72c-2,1.27-4,2.38-5.94,3.81-3.18,2.3-6.27,2.38-9.52.16-2.06-1.43-4.36-2.46-6.42-3.89-2.54-1.82-3.1-.32-3.57,1.75-.48,1.9.4,2.93,1.9,3.81a34.14,34.14,0,0,1,7.69,5.39c3.41,3.41,7.06,2.22,8.25-2.38a7.85,7.85,0,0,1,3.81-5.24A35.47,35.47,0,0,0,194.19,460.37Zm63,35.22c-7.06,7.62-14.27,7.15-21.65,1.12-.87-.72-2.45-2.54-3.56-.48-.8,1.51-1.51,3.25.39,5.24,3.33,3.65,8.33,3.73,11.9,6.58,2.38,1.91,4.12,1.51,4.52-1.82.39-3.57,2.45-6,5.55-7.62C255.41,498.05,256.68,497.58,257.15,495.59Zm-193.8.48c-3.41,2.3-6,1.27-8.41-.24a51.94,51.94,0,0,0-5.87-3.33c-1.27-.63-2.93-2.94-4.2-.24-.87,1.91-2.38,4.37,1,6s6.58,3.81,10,5.71c4.13,2.31,4.92,1.91,6.19-2.77C62.4,499.8,62.71,498.45,63.35,496.07ZM156,437.83c-4.13.95-6.74,4.92-10.95,5.16-4.36.24-7.29-3.33-10.94-5-1.11-.47-2.46-2.54-3.57-.4-.87,1.67-1.5,3.5,1,5.4,3.65,3,7.93,4.36,11.82,6.74,2.22,1.35,3.65,1.35,4-1.66a10.17,10.17,0,0,1,5.95-8.25A20,20,0,0,0,156,437.83Zm139.48,80.62c-.47.07-.87,0-1.19.23-11,8-9.75,6.19-20.46.16-1-.55-2.37-2.62-3.48-.55-1,1.74-1.91,4,.87,5.47,3.88,2,6.82,5.48,11.34,6.75,2.85.87,4.28,1,4.68-2.15.47-3.57,2.53-5.87,5.63-7.53C293.79,520.27,295.06,519.87,295.45,518.45Zm-81.83-47.53c-.64-.4-1,0-1.43.24-11.18,7.53-9.12,6.5-20.62.08-1-.56-2.46-2.54-3.49-.4-.79,1.59-1.34,3.25.64,5.24,3.41,3.41,8.17,4.12,11.89,6.74,2.46,1.67,4,.87,4.28-2,.48-3.65,2.62-5.87,5.71-7.54C211.71,472.66,213,472.19,213.62,470.92ZM143,511.62c.08-1.82-8.4-5.47-10.23-4.44-2.53,1.43-4.91,3.09-7.37,4.68-1.27.79-1.27,1.35-.08,2.3,5.23,4.29,7.53,4.36,13.32.56,1.11-.72,2.22-1.43,3.33-2.23A2.64,2.64,0,0,0,143,511.62Zm54.56,12.06c.08-1.9-8.33-5.55-10.15-4.52-2.54,1.43-4.92,3.09-7.38,4.6-1.18.72-1.34,1.35-.07,2.3,5.15,4.21,7.53,4.37,13.24.64,1.11-.72,2.22-1.43,3.25-2.22A3.41,3.41,0,0,0,197.52,523.68Zm-14.91-8.57c.08-2-8.17-5.55-10.07-4.52-2.54,1.43-4.92,3-7.29,4.6-.64.4-1.43.8-.8,1.83,1.27,2,8.41,4.52,10.23,3.41,2.38-1.35,4.68-2.94,7-4.44C182.06,515.67,182.37,515.27,182.61,515.11Zm-40.44-43.48c-.16-1.9-8.64-5.07-10.71-3.88a69.25,69.25,0,0,0-6.58,4.28c-.71.48-2,1.11-.71,2,2.46,1.67,5.07,4.21,8,3.89,3.8-.4,6.58-3.57,9.75-5.63C142.09,472.19,142.09,471.87,142.17,471.63Zm125.13,124c3.49-1.35,6.43-3.73,9.52-5.88.47-.31.31-.87,0-1.42-1.11-1.67-7.85-4.45-9.52-3.57a83.5,83.5,0,0,0-7.29,4.6c-.8.55-1.59,1.43-.48,2.14C261.91,593,264.21,594.77,267.3,595.65ZM176,491.39c-3.41,1.19-6.34,3.57-9.44,5.79-.23.16-.23.72-.16,1,.64,1.83,8.33,4.68,10.08,3.65,2.37-1.35,4.67-2.93,7-4.44.8-.56,1.75-1.35.48-2.06C181.5,493.93,179.28,492,176,491.39Zm-44.17-45.07c-.16-1.5-8.33-5.08-10-4.2-2.62,1.43-5.15,3.17-7.69,4.84-.8.47-1.11,1-.4,1.9,3.57,4.6,14.91,3.49,17.76-1.82A2.84,2.84,0,0,0,131.86,446.32Zm4.2,14.68c3.49-1.11,6.43-3.57,9.44-5.87a1.45,1.45,0,0,0,.08-1c-.71-1.83-7.93-4.76-9.67-3.73-2.54,1.43-4.92,3-7.3,4.6-.79.48-1.74,1.19-.4,2.06C130.67,458.54,132.89,460.37,136.06,461Zm91.2,79.42a3.41,3.41,0,0,0-.72-.79c-3.64-3.81-8.09-4.36-12.21-1.43-1.82,1.27-5.07,2-5,4,.15,2.46,3.64,2.86,5.7,4.12s11.66-3.17,12.14-5.31A1.19,1.19,0,0,0,227.26,540.42Zm133,57.45c-.16-.24-.4-.56-.64-.87-3.48-3.65-8-4.37-12.21-1.59-1.9,1.27-5.31,1.9-5.07,4.28.24,2.14,3.65,2.62,5.63,3.81s11.5-3,12.21-5.24A.85.85,0,0,1,360.24,597.87Zm-30.69,2.22c-.16-.24-.4-.56-.63-.87a8.92,8.92,0,0,0-12.22-1.51c-1.9,1.27-5.31,2.06-5.07,4.2s3.65,2.62,5.63,3.81,11.5-2.93,12.13-5.23A.47.47,0,0,0,329.55,600.09Zm-96.19-75.93c-1.19-.08-10.15,5.08-10.46,5.87a1.16,1.16,0,0,0,0,1c1.11,2.3,8.72,4.52,10.86,3.25s4.2-2.69,6.34-4.12c.8-.48,1.91-1.11.56-2C238.28,526.62,235.9,525,233.36,524.16Zm-4,37.61c.08-1.91-8.25-5.56-10.15-4.53-2.38,1.35-4.68,2.94-7,4.45-1.19.79-1.51,1.58-.16,2.7,4.92,4,7.14,4.2,12.61.63,1.19-.79,2.46-1.59,3.65-2.38A7.49,7.49,0,0,0,229.4,561.77Zm-11-45.78c-3.41,1.11-6.26,3.49-9.19,5.63-.8.63-.16,1.35.47,1.9,3.89,3.81,7.61,4.13,12.13,1.19,1.43-1,2.86-1.82,4.29-2.77.63-.48,1.42-1.19.47-1.83C224.08,518.52,221.71,516.62,218.45,516Zm50.83,29.67c.08-2.14-8-5.63-10.15-4.52-2.45,1.35-4.67,2.93-7,4.44-.64.4-1.27.87-.72,1.9,1.27,2.07,8.25,4.53,10.23,3.34,2.14-1.27,4.2-2.7,6.35-4.13A5.43,5.43,0,0,0,269.28,545.66ZM307,579.14c3.57-.95,6.42-3.49,9.52-5.71.47-.32.31-.87,0-1.43-1.35-2.14-8-4.36-10.23-3.09s-4.44,2.77-6.59,4.2c-.71.48-1.9,1.19-.47,2.07C301.64,576.68,303.86,578.59,307,579.14Zm-26,24.44c1.82,0,9.75-4.6,10.31-5.63a1.1,1.1,0,0,0-.24-1.43c-1.58-2.14-7.85-4.21-10.07-3.1a72.59,72.59,0,0,0-6.66,4.29c-.71.48-2,1.19-.63,2.06C276.18,601.28,278.48,603.18,281,603.58ZM104,501.31c3.49-1.19,6.34-3.73,9.51-5.79.48-.32.4-.88.08-1.43-1-1.83-8.09-4.53-9.83-3.57-2.38,1.35-4.68,2.85-7,4.36-.71.48-1.82,1.35-.63,2.14A25.66,25.66,0,0,0,104,501.31Zm193.56,120c.08-1.27-.71-1.58-1.34-1.9-2.78-1.19-5-4.44-8.49-2.78-2.54,1.27-4.84,3.1-7.29,4.6-1.27.8-1.11,1.43,0,2.38,4.52,4,7.29,4.21,12.52.88,1.11-.72,2.22-1.35,3.34-2.15A4,4,0,0,0,297.59,621.35Zm-119-135.75c3.49-1.19,6.5-3.57,9.51-5.79.24-.16.24-.72.16-1-.63-1.82-8.25-4.68-10.07-3.65-2.38,1.35-4.68,2.94-7,4.45-.79.55-1.66,1.35-.47,2.14C173.1,483.14,175.4,485,178.57,485.6Zm42,24.44c1.42,0,9.83-4.92,10.15-5.72a1.7,1.7,0,0,0,.08-1c-.8-1.82-8.41-4.68-10.08-3.65-2.37,1.35-4.67,2.94-7,4.44-.72.48-2.07,1.12-.72,2C215.44,507.65,217.82,509.56,220.52,510Zm-28,30c-1.26,0-9.67,4.84-10.07,5.71a1.88,1.88,0,0,0-.16,1.11c.56,1.59,8.17,4.76,9.68,3.89,2.54-1.43,4.92-3,7.29-4.6.88-.56,1.51-1.43.48-2.23A24.69,24.69,0,0,0,192.52,540Zm-18.39-68.71c.08-2.07-8-5.64-10.07-4.53-2.38,1.35-4.68,2.86-7,4.37-1,.63-1.59,1.27-.4,2.46,4,3.81,7.85,4.28,12.53,1.19,1.19-.8,2.46-1.59,3.57-2.38A7.34,7.34,0,0,0,174.13,471.32Zm99,56.81c-.16-1.51-7.85-5.16-9.44-4.29-2.61,1.43-5.15,3.17-7.69,4.76-.87.56-1.35,1-.39,2.14,3.88,4.45,15,3.34,17.28-1.9Zm-125.93-2.07c3.34-.63,5.71-3.17,8.49-4.76,2.3-1.27,1.59-2.06-.24-3.17-6.1-3.81-10.78-3.26-15.62,2-.63.64-1.11,1.35-.32,2C141.93,523.76,144.23,525.51,147.24,526.06Zm86.68,18.41c-3.57.95-6.43,3.49-9.6,5.63-.47.32-.47.8-.24,1.35,1.11,2.14,8.33,4.45,10.63,3.18,2.14-1.19,4.2-2.62,6.27-4,.71-.48,2-1.19.79-2A22.35,22.35,0,0,0,233.92,544.47Zm-70.18-21.11c-1.9,0-10.39,5.24-10.07,6.11,1.11,2.78,4.2,3.18,6.42,4.61a2.87,2.87,0,0,0,3.33-.08c2.46-1.51,4.84-3.1,7.3-4.68.63-.48,1.5-1.19.63-1.83C168.89,525.82,166.43,524.08,163.74,523.36Zm-43.85-24.91c-3.41,1-6.27,3.41-9.36,5.48a.91.91,0,0,0-.32,1.34c1,1.91,8.33,4.53,10.31,3.42,2.3-1.27,4.44-2.78,6.66-4.29.72-.47,1.83-1.35.64-2.14C125.44,500.67,123.06,498.93,119.89,498.45Zm72.71-4.84c3.65-.87,6.51-3.49,9.68-5.63.47-.32.39-.8,0-1.35-1.19-1.75-7.93-4.44-9.6-3.57-2.53,1.35-4.91,3-7.37,4.6-.87.56-1.43,1.51-.32,2.22C187.29,491.31,189.51,493.13,192.6,493.61Zm12.61,65.78c3.41-1,6.35-3.34,9.2-5.56.63-.47.24-1.19-.24-1.66a9.29,9.29,0,0,0-12-1.59c-1.51,1-3.09,2-4.6,3-.63.4-1.59,1.19-.56,1.83C199.42,557,201.8,559,205.21,559.39ZM93.08,463a4,4,0,0,0-.39-.63C90.39,459,84,458,80.48,460.45c-2,1.34-5.87,2.38-5.56,4.28.4,2.46,4.21,3.09,6.59,4.36,1.58.8,11-4,11.42-5.63A4.12,4.12,0,0,0,93.08,463Zm36.24,21.27c-3.56.95-6.5,3.49-9.51,5.71a1.45,1.45,0,0,0-.08,1c.71,1.75,8,4.68,9.83,3.73,2.54-1.35,4.92-3,7.38-4.6.71-.48,1.34-1.19.39-1.9C135,486.47,132.57,484.8,129.32,484.25ZM279,531.78c-3.65,1-6.5,3.49-9.6,5.71a1.45,1.45,0,0,0-.08,1c.8,1.82,8,4.68,9.84,3.65,2.53-1.35,4.91-3,7.29-4.6.72-.48,1.35-1.19.32-1.91A18.91,18.91,0,0,0,279,531.78Zm-44.81-13.73c1.91.08,9.68-4.29,10.31-5.48a1.17,1.17,0,0,0-.08-1.42c-1.11-1.75-7.77-4.37-9.59-3.42-2.54,1.35-4.92,3-7.38,4.61-.87.55-1.5,1.42-.23,2.06C229.71,515.75,231.86,517.65,234.23,518.05ZM158,512.49a42.52,42.52,0,0,0,9.36-5.79,1.15,1.15,0,0,0,0-1c-.64-1.59-8.17-4.68-9.68-3.89-2.46,1.43-4.83,3.1-7.29,4.68-.8.56-1.59,1.35-.4,2.15C152.4,510.19,154.7,512,158,512.49Zm222.43,89.82c3.65-.95,6.5-3.49,9.6-5.71a1.22,1.22,0,0,0,0-1c-.88-2-8.17-4.61-10.15-3.49-2.3,1.27-4.44,2.77-6.67,4.28-.71.48-1.82,1.35-.71,2.14C374.91,600,377.21,601.76,380.38,602.31Zm-38.22,24.6a5.6,5.6,0,0,0-.64-.8c-3.33-3.65-7.92-4.28-12.21-1.42-1.9,1.27-5.31,1.9-5,4.2.24,2,3.64,2.62,5.63,3.73,2.14,1.27,11.57-2.94,12.13-5.24C342.08,627.22,342.16,627.15,342.16,626.91ZM198.63,504.4c-.16-.24-.32-.55-.56-.87-3.25-3.73-8.16-4.29-12.52-1.43-6.51,4.29-6.51,4.29.39,7.86,2.3,1.19,11.82-2.62,12.53-5A5.1,5.1,0,0,1,198.63,504.4ZM355.88,611.2a14.16,14.16,0,0,1,7.21,9.36c.72,2.62,2.62,2.62,4.68,1.35,2.78-1.75,5.47-3.73,8.33-5.4,3.17-1.82,1.66-4.2.55-6.11-1.5-2.61-3.17-.15-4.12.64-5.31,4.76-10.47,4.84-15.86.32A1.41,1.41,0,0,0,355.88,611.2Zm-20-15.32c3.65-.71,6.43-3.41,9.6-5.55.48-.32.4-.87.08-1.35-.87-1.35-7.85-4.44-9.2-3.73-2.77,1.51-5.39,3.26-8,5-.79.56-.95,1.43-.08,1.91C330.66,593.58,332.72,595.49,335.89,595.88ZM202,538.76c3.81-1.51,6.82-3.89,9.83-6.11.48-.32.4-.88.08-1.43-1.27-1.9-8-4.44-9.83-3.33-2.38,1.35-4.68,2.93-7,4.52-.79.56-1.74,1.27-.55,2.06C197,536.06,199.58,537.33,202,538.76Zm99.6,5.79c-.16-.24-.4-.56-.64-.87-3.33-3.73-8.16-4.29-12.53-1.35-6.18,4.12-7.61,3.17.56,7.77,2.22,1.27,11.82-2.69,12.53-5.07A1.19,1.19,0,0,1,301.64,544.55Zm41,10.71c1.74,0,9.75-4.44,10.22-5.55a1.18,1.18,0,0,0,.08-1c-.87-2.15-8.32-4.69-10.54-3.42s-4.21,2.7-6.27,4c-.95.63-1.9,1.43-.47,2.38C338,553.2,340.26,554.86,342.64,555.26ZM156.05,479.73c-.24-1.75-8-5.08-9.84-4.05-2.53,1.43-4.91,3-7.29,4.6-.64.4-1.59,1.11-.64,1.75,2.54,1.74,5.16,4.36,8.33,4,3.65-.47,6.34-3.41,9.28-5.55C156,480.36,156,480,156.05,479.73Zm177.31,135c1.82.08,9.67-4.52,10.23-5.63a1.2,1.2,0,0,0-.16-1.43c-1.51-2.22-7.69-4.29-9.91-3.1s-4.44,2.78-6.67,4.21c-.71.47-1.9,1.19-.63,2.06C328.52,612.39,330.9,614.05,333.36,614.69ZM175.55,542.57c1.75,0,9.76-4.45,10.23-5.56a1.56,1.56,0,0,0,.08-1c-.87-2.14-8.32-4.6-10.54-3.41s-4.21,2.7-6.27,4c-.71.48-1.9,1.2-.71,2.07C170.64,540.42,173,542.17,175.55,542.57ZM70.17,449.65c-1.43.08-9.2,4.61-9.76,5.56a1.37,1.37,0,0,0-.16,1.43c.72,1.58,7.93,4.6,9.36,3.73,2.62-1.51,5.08-3.18,7.61-4.84.72-.48,1.43-1.19.48-1.83C75.24,452.11,72.86,450.21,70.17,449.65ZM342.48,581.13c2.45,1.5,4.44,2.61,6.42,3.8,1.59,1,3.09,1.35,4.76.24,2.3-1.5,4.68-2.93,7-4.44.63-.4,1.42-.79.71-1.83-1.27-2.06-8.33-4.52-10.23-3.41C348.42,577.16,345.73,579.06,342.48,581.13Zm23.63,13c3.49-1.11,6.42-3.57,9.59-5.71a1,1,0,0,0,.16-1c-.47-1.58-8.09-4.84-9.75-3.88-2.54,1.42-4.92,3.09-7.38,4.68-.87.55-1.5,1.43-.31,2.14C360.79,591.84,362.94,593.5,366.11,594.14ZM206.64,502c3.65-1.27,6.58-3.73,9.67-5.87a1.13,1.13,0,0,0,.24-1c-.55-1.83-8.33-4.76-10.15-3.73-2.3,1.27-4.52,2.78-6.66,4.2-.71.48-1.9,1.19-.79,2.15A23.63,23.63,0,0,0,206.64,502Zm-44.17-18.56c-1.67.07-9.2,4.36-10,5.39-.32.48-.56.79-.24,1.35,1.11,2,8.25,4.52,10.31,3.41,2.3-1.27,4.44-2.78,6.66-4.28.79-.56,1.74-1.35.56-2.15C167.31,485.68,165,483.85,162.47,483.46Zm82.87,60.06c3.56-.95,6.26-3.49,9.27-5.56.48-.31.48-.87.24-1.42-.87-1.91-7.85-4.53-9.91-3.5a78.46,78.46,0,0,0-7,4.37c-.71.47-1.82,1.27-.47,2.06C239.86,541.06,242.24,542.88,245.34,543.52Zm-127-73.71c2.86-.72,5.31-3.1,8.09-4.76,2.22-1.27,1.66-2.07-.24-3.18-6-3.73-10.86-3.17-15.7,2.07-.79.87-1.11,1.66-.08,2.3C112.83,467.51,115,469.41,118.38,469.81ZM259,519.87a6.17,6.17,0,0,0-.64-.79c-3.41-3.73-8-4.28-12.21-1.35-1.82,1.27-5.31,1.91-5,4.29.24,2,3.65,2.61,5.63,3.72,2.14,1.2,11.58-3.09,12.06-5.31A.67.67,0,0,0,259,519.87ZM273.65,560c3.41-1.27,6.42-3.65,9.43-5.87.64-.48.16-1.11-.31-1.67-3.41-3.65-8-4.2-12.3-1.42l-4.28,2.85c-.87.64-1.43,1.35-.24,2.14A31.75,31.75,0,0,0,273.65,560Zm-70.5-41.1c3.49-1.11,6.5-3.41,9.36-5.87,1.11-.87-.48-1.43-1.19-1.9-5.79-4.13-11.1-3.5-16,1.9-.63.63-1.11,1.35-.24,2A20.67,20.67,0,0,0,203.15,518.92Zm43.3,45.15c1.82.08,10.23-4.68,10.62-5.72s-.47-1.34-1-1.74c-5.79-4.21-11.66-3.49-16.33,1.82-.56.72-1,1.43-.16,2C241.85,561.85,244.07,563.59,246.45,564.07ZM112.51,486.39c1.83-.08,9.36-4.44,9.91-5.39a1.2,1.2,0,0,0-.07-1.43c-1.19-1.83-7.78-4.45-9.52-3.49a86.12,86.12,0,0,0-7.3,4.6c-.63.39-1.5,1.19-.55,1.82C107.44,484.17,109.82,486.07,112.51,486.39Zm10-70.85c-1.5-.08-10.15,4.68-10.46,5.63a1.34,1.34,0,0,0,0,1.11c.63,1.51,8,4.6,9.43,3.81,2.62-1.43,5.16-3.17,7.69-4.84.72-.48,1.19-1.27.32-1.9C127.18,417.76,124.88,416.17,122.5,415.54ZM364.84,612.47c3.41-1.11,6.34-3.57,9.43-5.8a1.15,1.15,0,0,0,0-1c-.95-2.06-8.16-4.6-10.22-3.49-2.3,1.27-4.45,2.78-6.67,4.21-.79.55-1.74,1.27-.55,2.14C359.13,610.17,361.51,612,364.84,612.47ZM89.75,492.74C93,492,95.3,489.56,98.16,488c1.9-1.11,1.51-1.91-.16-3-5.87-4-11.34-3.33-16,2.07-.63.71-1,1.34,0,1.9C84.36,490.44,86.66,492.26,89.75,492.74Zm17.93-21.27c-.24-2-8.09-5-10.31-3.8s-4.44,2.77-6.66,4.28c-.72.48-1.75.79-.72,2.06,3.57,4.45,15.23,3.26,17.45-1.82A1.12,1.12,0,0,0,107.68,471.47ZM150.26,469c3.49-.87,6.18-3.41,9.2-5.47.47-.32.47-.79.23-1.35-1.11-2.06-8.08-4.52-10.22-3.25-2.3,1.27-4.45,2.78-6.67,4.28-.71.48-1.9,1.19-.47,2.07C144.71,466.79,147,468.54,150.26,469Zm-7.14,34.84c2.86-.8,5.16-3,7.85-4.61,2.38-1.34,1.75-2.3-.24-3.57-5.63-3.49-11.26-2.69-15.7,2.38-.63.72-.95,1.35,0,1.91C137.57,501.47,139.79,503.37,143.12,503.85ZM291,589.46c3.57-.88,6.43-3.49,9.44-5.72,1.11-.79-.24-1.5-.95-2-5.4-4.12-12-3.25-16.34,2.06-.63.8-.79,1.35.08,1.91C285.7,587.08,287.92,588.9,291,589.46ZM258.5,610.09c1.51,0,9.75-4.53,10.23-5.48a1.17,1.17,0,0,0,.08-1c-.64-1.67-8.09-4.76-9.75-3.81-2.54,1.35-4.92,3-7.3,4.6-.95.64-1.27,1.51-.24,2.23C253.82,607.94,256,609.85,258.5,610.09Zm90.16,12.77c3.41-1,6.19-3.33,9.12-5.55.48-.32.32-.88,0-1.43-1.11-1.83-7.77-4.37-9.51-3.41-2.54,1.35-4.92,3-7.38,4.6-.87.55-1.51,1.35-.32,2.06C343.11,620.64,345.33,622.54,348.66,622.86Zm-48.37-43.8c3.49,1.59,4.2,4.76,5.15,7.7.88,2.7,2.38,3.25,4.76,1.75,2.86-1.83,5.71-3.73,8.57-5.56s1.19-4,.31-5.79c-1.27-2.54-2.77-.4-3.8.32C310.68,580.65,306.16,584,300.29,579.06Zm26.25,54.67c3,1.83,3.49,4.92,4.52,7.62.63,1.51,1.19,3.25,3.33,2,3.49-2.14,7-4.28,10.23-6.66,2.38-1.75.47-4-.32-5.72-1.19-2.38-2.46-.08-3.41.48C336.53,634.05,332.41,638.41,326.54,633.73Zm17.6-9.36c1.51,2.14,2.06,4.6,2.94,7,.55,1.59,1.34,2.78,3.17,1.67,3.49-2.15,7-4.21,10.31-6.59,2.38-1.74.71-4-.16-5.71-1.19-2.14-2.46-.08-3.57.47a21.62,21.62,0,0,0-3.65,2.31C350.41,625.48,347.47,626.27,344.14,624.37Zm-26.4-54.83c2.69,1.75,2.85,4.52,3.8,6.91s2.22,3.09,4.44,1.58c2.7-1.82,5.47-3.65,8.25-5.39s1.9-4.13.71-6.11c-1.5-2.46-3-.16-4.2.63C326.78,569.78,323.13,573.19,317.74,569.54Zm58,33.72c2.14,2.7,2.7,5,3.49,7.22.87,2.46,2.14,2.62,4.12,1.27a71.52,71.52,0,0,1,7.93-5.15c3.65-1.83,2.3-4.45,1-6.51-1.58-2.54-3.17.16-4.44.87C384.35,603,381.25,606.6,375.78,603.26ZM66.92,483.14c-7-4.05-14-8.17-21-12.14-1-.64-2.62-2.46-3.57-.4-.87,1.83-2.3,4.29.32,6,2.14,1.43,4.52,2.7,6.82,4.05a2.51,2.51,0,0,0,2.93-.16c3.18-2.22,6.19-1.51,9.2.4C63.27,481.79,64.77,483.06,66.92,483.14ZM291.25,628.65c-4.12,2.15-6.82,0-9.75-1.5-1-.56-2.3-2.23-3.41-.72s-2.38,4.05-.88,5.4c2.94,2.54,6.35,5.47,10.15,5.39,3.18-.08,2.15-4.52,3.26-6.82C290.93,630.16,290.93,629.76,291.25,628.65Zm13.08-37.92c0-3.26-2.22-5.16-4.28-3.49-5.39,4.44-10.78,6.5-16.89,1.27-.63-.56-1.9-.88-2.14.55-.24,1.11.79,1.11,1.59,1.19a18.37,18.37,0,0,1,10.78,5.32c2.22,2.14,3.41,1.82,5.39.31,1.35-1,2.86-1.9,4.29-2.85A2.42,2.42,0,0,0,304.33,590.73Z"/><path d="M537.47,540.58a4.1,4.1,0,0,1,1.75-4.12q5.1-3.11,10.22-6c1.59-.88,2.86-.32,3.26,1.5.79,3.65-1.35,8.57-4.6,10.56-1.27.79-2.46,1.5-3.73,2.22C539.45,547.56,537.47,546.37,537.47,540.58Z"/><path d="M453.81,538.28v4.6c0,2.46-.79,6,3.81,3.49,1-.55,2.06.16,2.93.72,2.14,1.27,4.36,2.54,6.5,3.73,5.16,2.93,5.79,4.28,5,10.23a4.68,4.68,0,0,1-7,3.73c-2.77-1.43-5.47-3.17-8.25-4.76-12.52-7.22-25.05-14.52-37.74-21.58-3.41-1.9-4.52-4.13-4.44-7.86.08-5,2-10.87-.8-14.67s-8.16-5.56-12.52-7.94c-3.18-1.66-5.16-3.57-5.08-7.54.08-3.17,1.19-3.57,3.57-2.3,4,2.23,8.09,4.45,12,6.91,2.46,1.5,3.25.95,3-1.75,0-.4-.08-.79-.08-1.19-.08-1.27-.88-2.7.71-3.57,1.43-.79,2.54.32,3.65,1,7.93,4.52,15.78,9,23.63,13.65a35.66,35.66,0,0,0,3.81,2.14c5.31,2.14,8.48,5.48,7.29,11.74-.4,2,1.11,3,2.7,3.89,4.28,2.38,8.4,4.92,12.68,7.38,1.59.87,2.86,2,2.86,4,0,1.82.71,4-1,5.23-2,1.43-2.94-1-4.36-1.74C462.61,543.44,458.49,541.06,453.81,538.28Zm-31.72-22.21c-.87-.16-1.27.23-1.27.79,0,5,0,10,.16,15,0,1,1.27,1.59,2.22,2.15,7.77,4.44,15.54,8.88,23.32,13.48,2.53,1.51,3.09.72,3.17-1.9.16-3.65-1.11-7.54.79-10.87,1.27-2.22-.08-2.38-1.27-3.09-1.51-1-2.3-.64-2.62,1.19s-1.5,2.85-3.4,1.42c-4.21-3.25-9-5.55-13.56-8.17-2.3-1.35-4.05-2.85-3.81-5.87C426.14,517.49,423.84,516.94,422.09,516.07Zm20.46,6.1c.24-.31.48-.63.71-.95-3.09-2.93-7.13-4.6-10.78-6.74-1-.56-2-1.67-3.25-1.11-2.46,1.11-4.28-.32-6.27-1.35-1-.56-2.37-1.67-3.17-1.35-5.63,2.3-9-2.3-13.24-4.13-1.82-.79-3.25-2.53-6.58-2,5.47,3.17,10.15,5.79,14.75,8.49.71.4,1.58.71,2.22.16,2.46-1.91,4.44-.32,6.5.87,1.11.64,2.54,1.91,3.49,1.67,4.28-1.19,6.9,1.82,10.07,3.41A61.29,61.29,0,0,1,442.55,522.17Zm-10.63-3.41a2.36,2.36,0,0,0-2.45,2.07c-.4,1.19-.48,2.22.95,3,3.09,1.75,6.1,3.57,9.2,5.32.87.47,2,1.66,2.69.47s1.67-3.25.72-4A122.23,122.23,0,0,0,431.92,518.76Z"/></g></g></svg>