<svg xmlns="http://www.w3.org/2000/svg" viewBox="0 0 438 62.86"><defs><style>.cls-1{fill:#fff;}</style></defs><g id="Camada_2" data-name="Camada 2"><g id="Camada_1-2" data-name="Camada 1"><g id="Camada_2-2" data-name="Camada 2"><g id="Camada_1-2-2" data-name="Camada 1-2"><path class="cls-1" d="M438,.34V62.86H0V14.06H1.17c1.61-.06,3.19.16,4.79.16h19.7c1.25,0,2.51-.14,3.77-.13,2,0,4-.17,6.08-.24,2.36-.08,4.71-.33,7.1-.45s4.81-.37,7.2-.61c3.5-.34,7-.77,10.42-1.27,6.72-1,13.35-2.2,19.85-3.61S93.17,5.13,99.84,4q6.93-1.21,14-2c2.86-.33,5.75-.6,8.63-.85C124.25.91,126,.8,127.82.69c1.45-.09,2.91-.13,4.35-.24C134.05.31,136,.3,137.84.21c3.23-.16,6.49-.16,9.75-.21h5.07c2.61,0,5.24,0,7.85.12s5.07,0,7.58.21c1.68.11,3.38.12,5.06.23,2.17.13,4.34.3,6.5.47s4.53.34,6.77.6c7.85.84,15.59,2,23.15,3.52,2.25.45,4.5.93,6.75,1.39,5.29,1.08,10.52,2.25,15.86,3.22s10.55,1.81,15.94,2.47c3.32.4,6.68.74,10.05,1,1.68.14,3.36.26,5.06.37,2.08.13,4.15.29,6.24.32l.58,0c2.45.18,4.93.27,7.41.27,6.08.07,12.25,0,18.38,0,1.71,0,3.38-.2,5.06-.17,2.1,0,4.17-.16,6.26-.23,2.27-.08,4.52-.31,6.79-.45,3.53-.21,7-.56,10.5-.95,6.54-.75,13-1.75,19.32-3,4.62-.91,9.2-1.87,13.78-2.83q6.33-1.33,12.74-2.5c4.29-.77,8.9-1.47,13.43-2,3.32-.4,6.69-.71,10-1,1.72-.16,3.47-.28,5.2-.37,1.5-.07,3-.13,4.49-.24,1.89-.14,3.8,0,5.67-.27,3,0,6.08-.19,9.12-.19h7.88c3.83.05,7.66.14,11.5.22Z"/></g></g></g></g></svg>