<svg xmlns="http://www.w3.org/2000/svg" viewBox="0 0 432.07 104.19"><defs><style>.cls-1{fill:#fff;}</style></defs><g id="Camada_2" data-name="Camada 2"><g id="Camada_1-2" data-name="Camada 1"><path class="cls-1" d="M432.07.59v103.6H0V23.32c.38,0,.77,0,1.15,0,1.59-.09,3.15.28,4.73.28,6.48,0,13,0,19.43,0,1.24,0,2.48-.24,3.72-.23,2,0,4-.28,6-.39,2.33-.13,4.65-.54,7-.75s4.75-.61,7.11-1c3.45-.57,6.87-1.29,10.27-2.11A195.36,195.36,0,0,0,79,13.14c6.47-2.27,12.91-4.61,19.49-6.55q6.84-2,13.82-3.38c2.82-.54,5.67-1,8.51-1.41,1.75-.27,3.51-.45,5.27-.63,1.43-.14,2.87-.21,4.29-.39,1.86-.23,3.73-.26,5.59-.41,3.19-.25,6.41-.26,9.62-.34,1.68,0,3.36,0,5,0,2.58,0,5.17,0,7.75.2s5,.06,7.47.35c1.66.18,3.34.2,5,.37,2.14.22,4.28.5,6.41.78s4.47.57,6.68,1a160.56,160.56,0,0,1,22.83,5.84c2.22.74,4.44,1.53,6.66,2.29,5.22,1.79,10.38,3.73,15.65,5.35s10.4,3,15.72,4.08c3.28.67,6.59,1.23,9.91,1.67,1.66.22,3.32.42,5,.6,2.05.22,4.09.49,6.15.53a5.48,5.48,0,0,1,.57.05,59.77,59.77,0,0,0,7.31.45c6,.12,12.09,0,18.13.07,1.69,0,3.34-.33,5-.28,2.07.06,4.11-.27,6.17-.38,2.24-.13,4.46-.52,6.7-.75,3.48-.35,6.93-.92,10.36-1.58a154.63,154.63,0,0,0,19.06-4.95c4.55-1.5,9.07-3.1,13.59-4.69,4.16-1.47,8.34-2.87,12.57-4.14s8.78-2.44,13.24-3.34c3.28-.67,6.6-1.18,9.91-1.71,1.7-.27,3.42-.46,5.13-.61,1.48-.13,3-.23,4.43-.41,1.86-.22,3.75-.05,5.59-.45,3,.08,6-.3,9-.3,2.59,0,5.18,0,7.77,0,3.78.08,7.56.23,11.35.35Z"/></g></g></svg>