<svg xmlns="http://www.w3.org/2000/svg" viewBox="0 0 432.07 104.19"><g id="Camada_2" data-name="Camada 2"><g id="Camada_1-2" data-name="Camada 1"><path d="M431.77,103.81c-3.79.12-7.57.27-11.35.35-2.59,0-5.18,0-7.77,0-3,0-6-.38-9-.3-1.84-.4-3.73-.23-5.59-.46-1.46-.17-2.95-.27-4.43-.4-1.71-.15-3.43-.34-5.13-.61-3.31-.53-6.63-1-9.91-1.71-4.46-.9-8.87-2-13.24-3.34s-8.41-2.67-12.57-4.14c-4.52-1.6-9-3.19-13.59-4.69a152.87,152.87,0,0,0-19.06-5c-3.43-.66-6.88-1.23-10.36-1.58-2.24-.23-4.46-.63-6.7-.75-2.06-.11-4.1-.44-6.17-.38-1.68.05-3.33-.29-5-.28-6,0-12.09,0-18.13.07a59.77,59.77,0,0,0-7.31.45,3.64,3.64,0,0,1-.57,0c-2.06,0-4.1.32-6.15.54-1.67.18-3.33.38-5,.6-3.32.44-6.63,1-9.91,1.66-5.32,1.09-10.54,2.5-15.72,4.09s-10.43,3.56-15.65,5.34c-2.22.76-4.44,1.55-6.66,2.3a160.56,160.56,0,0,1-22.83,5.84c-2.21.39-4.45.67-6.68,1s-4.27.56-6.41.78c-1.67.17-3.35.18-5,.37-2.49.28-5,.13-7.47.35s-5.17.16-7.75.2c-1.68,0-3.36,0-5,0-3.21-.08-6.43-.09-9.62-.34-1.86-.15-3.73-.18-5.59-.42-1.42-.17-2.86-.24-4.29-.39-1.76-.17-3.52-.35-5.27-.62-2.84-.43-5.69-.87-8.51-1.41q-7-1.35-13.82-3.38c-6.58-1.94-13-4.28-19.49-6.55a198.08,198.08,0,0,0-19.53-6C56,84.28,52.61,83.55,49.16,83c-2.36-.39-4.72-.79-7.11-1s-4.66-.62-7-.75c-2-.11-4-.4-6-.39-1.24,0-2.48-.22-3.72-.23-6.48,0-12.95,0-19.43,0-1.58,0-3.14.37-4.73.27-.38,0-.77,0-1.15,0V0H432.07V103.6Z"/></g></g></svg>